<svg id="Layer_1" data-name="Layer 1" xmlns="http://www.w3.org/2000/svg" viewBox="0 0 91.2 122.22"><defs><style>.cls-1,.cls-3,.cls-7{fill:#009046;}.cls-2{fill:#96ca59;}.cls-3{opacity:0.23;}.cls-4,.cls-6{opacity:0.32;}.cls-5,.cls-6{fill:#e7e862;}.cls-7{opacity:0.46;}.cls-12,.cls-8{fill:none;stroke-linecap:round;stroke-linejoin:round;stroke-width:0.88px;}.cls-8{stroke:#296c36;}.cls-9{fill:#f177aa;opacity:0.68;}.cls-10{fill:#e7eda8;}.cls-11{opacity:0.61;}.cls-12{stroke:#009046;}.cls-13{opacity:0.17;}.cls-14{fill:#918532;opacity:0.15;}</style></defs><title>aliigator</title><path class="cls-1" d="M39.8,64.17s-5.51-.58-7.16,0S35.47,72,35.47,72,39.51,66.67,39.8,64.17Z"/><path class="cls-1" d="M32.64,75.77s-6.05-2.24-7.23-1.56,1.32,7.73,1.32,7.73S31.71,78.72,32.64,75.77Z"/><path class="cls-1" d="M22.62,84.25s-4.55-3.78-6-3.34S16,87.78,16,87.78,21.45,86.42,22.62,84.25Z"/><path class="cls-1" d="M10.88,88.55S10,83.12,9.26,83.26,6,86.35,5.74,87.08,9.11,90,10.88,88.55Z"/><path class="cls-2" d="M37.74,103.53c-3.22.29-19.08-.59-26.87-3.53-3.08-1.16-5.77-3.8-7.71-6.64C.22,89-1,84.21.89,83.41c3.08-1.32,5.29,9.25,20,1.32a38.09,38.09,0,0,0,8.52-6.28,44.36,44.36,0,0,0,8.85-12.26,16.91,16.91,0,0,1,1.94.53C40.28,77.78,40.27,103.3,37.74,103.53Z"/><path class="cls-3" d="M37.74,103.53c-3.22.29-19.08-.59-26.87-3.53-3.08-1.16-5.77-3.8-7.71-6.64,1.4.71,2.73,1.67,4.18,2.29,3.74,1.58,8,.76,12-.08,2.1-.44,4.38-1,5.7-2.7a9.11,9.11,0,0,0,1.41-3.53c.85-3.5,2.16-7.22,3-10.89a44.36,44.36,0,0,0,8.85-12.26,16.91,16.91,0,0,1,1.94.53C40.28,77.78,40.27,103.3,37.74,103.53Z"/><path class="cls-1" d="M36.54,115.84a6.61,6.61,0,0,0-2.65,0c-1.29.31-1.44,1.14-1.07,1.11a12.87,12.87,0,0,1,2.77.52C36,117.66,36.54,115.84,36.54,115.84Z"/><path class="cls-1" d="M35.47,117.39a6.62,6.62,0,0,0-2.5.84c-1.13.71-1,1.55-.67,1.4a12.19,12.19,0,0,1,2.79-.39C35.5,119.29,35.47,117.39,35.47,117.39Z"/><path class="cls-1" d="M35.74,118.7a6.55,6.55,0,0,0-1.83,1.91c-.68,1.14-.18,1.83.05,1.54a12.85,12.85,0,0,1,2.3-1.63C36.64,120.38,35.74,118.7,35.74,118.7Z"/><path class="cls-1" d="M83.91,115.84a6.62,6.62,0,0,1,2.65,0c1.29.31,1.45,1.14,1.08,1.11a12.87,12.87,0,0,0-2.77.52C84.5,117.66,83.91,115.84,83.91,115.84Z"/><path class="cls-1" d="M85,117.39a6.7,6.7,0,0,1,2.51.84c1.12.71,1,1.55.66,1.4a12.19,12.19,0,0,0-2.79-.39C85,119.29,85,117.39,85,117.39Z"/><path class="cls-1" d="M84.71,118.7a6.66,6.66,0,0,1,1.84,1.91c.67,1.14.18,1.83-.06,1.54a12.77,12.77,0,0,0-2.29-1.63C83.81,120.38,84.71,118.7,84.71,118.7Z"/><path class="cls-1" d="M72,7.61s9-4.37,10-2.91-2,9.6-2,9.6Z"/><path class="cls-1" d="M80.48,15.72s7.93-1.47,8.51,0-5.14,7.34-5.14,7.34Z"/><path class="cls-1" d="M83.85,25.7s7.05,1.05,7.35,3-8.67,4-8.67,4Z"/><path class="cls-1" d="M80.77,36.36s5.14,2.43,5,3.89-8.37,1.46-8.37,1.46Z"/><path class="cls-2" d="M54.88,104.05h0c-2.56,1-2.58,5.35-1.17,8.88,1.32,3.33,3.22,6.13-5.12,7.91-.49.1-1,.21-1.58.31-10.13,1.76-14.53-1.48-11.89-4.26s9-.3,7.79-1.62S31.29,100.15,31.44,88.7s7-14.84,7-14.84a.49.49,0,0,0,0,.12A52.08,52.08,0,0,0,44.39,92.8,24.84,24.84,0,0,0,51.86,101h0C54.54,102.94,56.25,103.52,54.88,104.05Z"/><path class="cls-2" d="M85.35,116.89c2.64,2.78-1.77,6-11.9,4.26-1.15-.21-2.15-.42-3-.65-6.67-1.79-4.94-4.45-3.69-7.57s1.37-6.78-.29-8.33a1.84,1.84,0,0,0-.22-.17,2.15,2.15,0,0,0-.66-.38c-2.56-1,5.34-2.11,10.47-11.25a52.07,52.07,0,0,0,6-18.94,4,4,0,0,1,.38.23c1.45.91,6.5,4.79,6.63,14.61.15,11.45-10.28,25.25-11.45,26.57S82.7,114.1,85.35,116.89Z"/><path class="cls-2" d="M82.93,79.1c1.31,14.12-5.73,21.84-14.24,24.65a15.84,15.84,0,0,1-1.9.55l-.54.13a25.53,25.53,0,0,1-3.87.53,20.6,20.6,0,0,1-7.5-.91h0A19.72,19.72,0,0,1,50,101.76C44.33,98.1,40,91.28,38.89,81q-.41-3.75-.43-7.06a.49.49,0,0,1,0-.12C38.26,61.1,41.37,53,40.73,48.8c-.76-5-.65-5.09-3.36-5.09S20.71,41.87,15.3,39.17c-.34-.17-.67-.35-1-.52C9.67,36,8.12,32.91,9.13,30.08A6.53,6.53,0,0,1,7,25.1c-.11-3.46,1.4-4.22,1.4-4.22S8,17,9.94,16.76s2.11,3.47,2.11,3.47,1.84.22,3,.43c0,0,.33-3.14,2.17-3s1.51,3.25,1.83,3.57,12.56.11,17.43-.11,7.9-2.49,8.11-5.95a9.65,9.65,0,0,1,5.29-8.38,19.39,19.39,0,0,1,5.65-1.9c1.37-.25,2.76-.47,4.16-.6,8-.76,16.15,1.13,22.78,12.18,7.8,13-5.41,24.78-5.08,29.65.29,4.39,3.21,13.43,5,28Q82.69,76.49,82.93,79.1Z"/><g class="cls-4"><path class="cls-5" d="M18.77,26.3c-.95.19-2.07.62-2.2,1.58-.14,1.11,1.16,1.8,2.24,2.1a43.29,43.29,0,0,0,9.73,1.54,8.22,8.22,0,0,0,3.09-.29,3.27,3.27,0,0,0,2.16-2.09C35.26,23.64,20.82,25.87,18.77,26.3Z"/><path class="cls-5" d="M41.38,26.39a17.2,17.2,0,0,0-3.44-.05,2.35,2.35,0,0,0-1.33.41A.89.89,0,0,0,36.42,28a1.3,1.3,0,0,0,.72.3l2.31.46a4.89,4.89,0,0,0,2,.11,1.65,1.65,0,0,0,1.34-1.33c.05-.68-.7-1.34-1.31-1.05"/></g><path class="cls-6" d="M49.22,8.64c-.74,3.18.34,6.68-.87,9.72s-4.76,5-8.17,5.4S33.37,23.5,30,23.21a46.82,46.82,0,0,0-14.17.95c-1.6.36-3.3.88-4.21,2.23s-.35,3.69,1.26,3.87c-2.12,0-2.54,3.23-1.37,5,.81,1.22,2,2.22,2.86,3.4C9.67,36,8.12,32.91,9.13,30.08A6.53,6.53,0,0,1,7,25.1c-.11-3.46,1.4-4.22,1.4-4.22S8,17,9.94,16.76s2.11,3.47,2.11,3.47,1.84.22,3,.43c0,0,.33-3.14,2.17-3s1.51,3.25,1.83,3.57,12.56.11,17.43-.11,7.9-2.49,8.11-5.95a9.65,9.65,0,0,1,5.29-8.38A8.15,8.15,0,0,0,49.22,8.64Z"/><path class="cls-3" d="M85.35,116.89c2.64,2.78-1.77,6-11.9,4.26-1.15-.21-2.15-.42-3-.65a10.44,10.44,0,0,1,.43-4.07c.53-1.71,1.49-3.27,1.82-5a7.51,7.51,0,0,0-1.4-5.94,4.33,4.33,0,0,0-2.61-1.71,2.26,2.26,0,0,0-1.28.16,2.49,2.49,0,0,0-.62.39l-.32.3a1.84,1.84,0,0,0-.22-.17,25.53,25.53,0,0,1-3.87.53,20.6,20.6,0,0,1-7.5-.91h0c-2.56,1-2.58,5.35-1.17,8.88,1.32,3.33,3.22,6.13-5.12,7.91,1.51-3.06,2.85-6.22,1.26-9-1-1.73-3-2.89-3.39-4.85-.45-2.24,1.46-4.22,3.55-5.22l.36-.16c.49-.21,1-.39,1.51-.56h0A15.83,15.83,0,0,0,57,98.81c4.85-3.87,2.23-12,5.23-17.44.8-1.46,2-2.68,2.87-4.1,2.51-4.1,2.07-9.32,1.09-14S63.73,53.76,64.48,49c1-6.47,6-11.6,8.17-17.77a22.25,22.25,0,0,0-.79-16.77,18.56,18.56,0,0,0-9.32-9.34,15.34,15.34,0,0,0-2.82-.87c8-.76,16.15,1.13,22.78,12.18,7.8,13-5.41,24.78-5.08,29.65.29,4.39,3.21,13.43,5,28,1.45.91,6.5,4.79,6.63,14.61.15,11.45-10.28,25.25-11.45,26.57S82.7,114.1,85.35,116.89Z"/><path class="cls-7" d="M74.37,31.14a2.56,2.56,0,0,0-.13,1.09c.17.94,1.39,1.3,2.33,1.1a5.3,5.3,0,0,0,3.53-3.12,15.66,15.66,0,0,0,1.1-4.75l.33-2.65C81.89,20,78.9,13,75.77,17.45c-1.13,1.59-.19,5.2-.3,7.06A30.42,30.42,0,0,1,74.37,31.14Z"/><path class="cls-8" d="M43.11,16.12s2.6-5.74,4.33-5.09-.33,6.6-.33,6.6"/><path class="cls-8" d="M55,19.94s2.6-5.73,4.33-5.09S59,21.46,59,21.46"/><path class="cls-9" d="M70.82,30.13c-.42,1.41-2.88,1.91-5.48,1.13s-4.38-2.55-4-4,2.87-1.91,5.48-1.13S71.24,28.73,70.82,30.13Z"/><path class="cls-8" d="M58.37,11.25s2.27-2.38,5-1.3,1.84,5.19,1.84,5.19"/><path class="cls-8" d="M45.89,7.41s2.27-2.39,5-1.3,1.84,5.19,1.84,5.19"/><path class="cls-10" d="M15.08,32.46c-.69,1.07-1.85,2.71-2.37,2.49s-.85-2.63-1-3.71C12.84,31.69,13.94,32.09,15.08,32.46Z"/><path class="cls-10" d="M23,34.58c-.77,1.33-2.1,3.36-2.84,3.07s-1-2.54-1.05-4C20.39,34,21.69,34.3,23,34.58Z"/><path class="cls-10" d="M31.4,36c-.68,1.2-1.81,3-2.47,2.85s-.86-2-1-3.35C29.09,35.68,30.25,35.85,31.4,36Z"/><path class="cls-10" d="M39.54,36.79c-.62,1.41-1.64,3.46-2.27,3.46s-1.16-2.35-1.38-3.75l1.92.17C38.4,36.73,39,36.76,39.54,36.79Z"/><path class="cls-10" d="M49.45,36.11c-.33,1.41-1,3.59-1.79,3.58s-1.47-1.85-1.8-3A31.06,31.06,0,0,0,49.45,36.11Z"/><g class="cls-11"><path class="cls-1" d="M17,19.46c1,0,.6,3.06-.2,3.26S16.1,19.43,17,19.46Z"/><path class="cls-1" d="M10.1,18.13c1-.05.86,3,.08,3.26S9.23,18.17,10.1,18.13Z"/></g><path class="cls-1" d="M56.31,8.56c-1,.25,0-5.64,1.15-6.22s5.76,3.17,4.88,4.05S58.21,8.09,56.31,8.56Z"/><path class="cls-1" d="M64.38,5.82s1.89-6,3-5.81,3.47,7,3.47,7S66.2,7.54,64.38,5.82Z"/><path class="cls-12" d="M58.37,31.16c-1.41,2.27-4.58,4-8.92,4.95a31.06,31.06,0,0,1-3.59.56,43.61,43.61,0,0,1-6.32.12c-.57,0-1.14-.06-1.73-.12l-1.92-.17c-1.49-.14-3-.31-4.49-.51-1.15-.14-2.31-.31-3.45-.5-1.67-.26-3.32-.57-4.94-.91-1.32-.28-2.62-.58-3.89-.92s-2.73-.76-4-1.2c-1.14-.37-2.24-.77-3.32-1.22-.9-.36-1.78-.75-2.63-1.16"/><path class="cls-12" d="M56.31,30.08s2.6,1.94,5.31,1"/><path class="cls-10" d="M74.09,85.89a33.66,33.66,0,0,1-1.6,7.85c-1.72,4.87-4.79,7.81-10,8-4.38.18-7.51-1-9.81-3.31a12.76,12.76,0,0,1-2-2.48,26.08,26.08,0,0,1-2.89-7.39,82.87,82.87,0,0,1-1.62-9.09c-.26-1.94-.49-3.95-.73-6-.07-.58-.13-1.17-.18-1.73a60.7,60.7,0,0,1-.26-8.92A33,33,0,0,1,46,56c1.71-6.45,5.63-10.5,12.66-10.82l.56,0c6.9-.12,10.6,3.2,12.62,8.91a35,35,0,0,1,1.56,6.64c.37,2.56.61,5.38.76,8.41.07,1.19.12,2.43.16,3.68s.07,2.4.08,3.56A86.67,86.67,0,0,1,74.09,85.89Z"/><g class="cls-13"><path class="cls-1" d="M73.42,60.71a118.53,118.53,0,0,0-28.37,2.1A33.22,33.22,0,0,1,46,56a68.47,68.47,0,0,1,25.84-1.93A34.61,34.61,0,0,1,73.42,60.71Z"/><path class="cls-1" d="M74.43,76.36c-6.78-.11-18,.25-28.21,3.13-.26-1.94-.49-3.95-.73-6-.07-.59-.13-1.17-.18-1.73a98.44,98.44,0,0,1,28.88-2.61c.07,1.19.12,2.42.16,3.68S74.42,75.2,74.43,76.36Z"/><path class="cls-1" d="M74.09,85.89a34.18,34.18,0,0,1-1.6,7.85A62.57,62.57,0,0,0,50.73,96a26,26,0,0,1-2.89-7.4A89.9,89.9,0,0,1,74.09,85.89Z"/></g><path class="cls-14" d="M74.09,85.89a33.66,33.66,0,0,1-1.6,7.85c-1.72,4.87-4.79,7.81-10,8-4.38.18-7.51-1-9.81-3.31,1.7,0,3.43.29,4.91-.46,1.81-.91,2.65-3,3.31-4.9,2.88-8.38,4.93-17.16,4.7-26-.22-8.38-2.82-14.91-6.92-21.89l.56,0c6.9-.12,10.6,3.2,12.62,8.91a35,35,0,0,1,1.56,6.64c.37,2.56.61,5.38.76,8.41.07,1.19.12,2.43.16,3.68s.07,2.4.08,3.56A86.67,86.67,0,0,1,74.09,85.89Z"/><path class="cls-1" d="M51.88,82.49s4.85,1.43,5.07,2.2S51.88,86,51.88,86Z"/><path class="cls-1" d="M51.33,87.78s2.75,3.3,2.31,4-4.51-2-4.51-2Z"/><path class="cls-1" d="M47.92,89.81s.22,4.35-.67,4.79-2.86-5.17-2.86-5.17Z"/><path class="cls-2" d="M51.88,88.21c-1.73,3-5.91,3.38-9.82,1.25-3.57-1.93-6.92-5.94-8-11.92-2.13-11.61,3.4-25,6.14-26.35a.85.85,0,0,1,.61-.08c.55.18.87,1.08,1.16,2.54.09.46.18,1,.28,1.55a67,67,0,0,0,4.15,16C50.89,82.05,55.18,82.49,51.88,88.21Z"/><path class="cls-3" d="M51.88,88.21c-1.73,3-5.91,3.38-9.82,1.25,1.3-.25,2.65-.37,3.46-1.35a4,4,0,0,0,.64-2.92c-.36-4-2.74-7.53-4.12-11.32a23.2,23.2,0,0,1-.83-12.76,28.77,28.77,0,0,0,1-5.18,6,6,0,0,0,0-.73,67,67,0,0,0,4.15,16C50.89,82.05,55.18,82.49,51.88,88.21Z"/><path class="cls-1" d="M66.92,82.49s-4.85,1.43-5.07,2.2S66.92,86,66.92,86Z"/><path class="cls-1" d="M67.47,87.78s-2.76,3.3-2.32,4,4.52-2,4.52-2Z"/><path class="cls-1" d="M70.88,89.81s-.22,4.35.66,4.79,2.86-5.17,2.86-5.17Z"/><path class="cls-2" d="M84.75,77.54c-2.16,11.79-13.1,15.91-17.15,11.6a5.61,5.61,0,0,1-.69-.93c-3.3-5.72,1-6.16,5.51-17,3.64-8.68,3.86-16.07,4.76-18.91.22-.69.48-1.11.84-1.23C80.42,50.35,87.07,65,84.75,77.54Z"/><path class="cls-3" d="M82.74,77.54c-2.17,11.79-13.1,15.91-17.15,11.6.41-.08.84-.16,1.25-.27,2.43-.67,4.27-2.65,5.73-4.7a33.79,33.79,0,0,0,5.32-27c-.56-2.41-1.48-3.94-2.73-4.82.22-.69.49-1.11.84-1.23C78.41,50.35,85.06,65,82.74,77.54Z"/></svg>