<?xml version="1.0" encoding="utf-8"?>
<!-- Generator: Adobe Illustrator 23.0.3, SVG Export Plug-In . SVG Version: 6.00 Build 0)  -->
<svg version="1.1" id="Layer_1" xmlns="http://www.w3.org/2000/svg" xmlns:xlink="http://www.w3.org/1999/xlink" x="0px" y="0px"
	 viewBox="0 0 750 501.8" style="enable-background:new 0 0 750 501.8;" xml:space="preserve">
<style type="text/css">
	.st0{opacity:0.86;fill:url(#SVGID_1_);}
	.st1{opacity:0.47;fill:#FFEFE0;}
	.st2{opacity:0.68;fill:#E0444F;}
	.st3{opacity:0.33;fill:#E0444F;}
	.st4{opacity:0.37;fill:#E0444F;}
	.st5{fill:#F7E8A9;}
	.st6{opacity:0.36;fill:#FFEFE0;}
	.st7{opacity:0.1;fill:#FFFFFF;}
	.st8{fill:#FFEFE0;}
	.st9{opacity:0.31;fill:#F6851F;}
	.st10{fill:#EE964C;}
	.st11{opacity:0.43;}
	.st12{fill:#F6851F;}
	.st13{fill:#8D3A3C;}
	.st14{opacity:0.55;fill:#F6851F;}
	.st15{opacity:0.68;}
	.st16{fill:#E0444F;}
	.st17{clip-path:url(#SVGID_3_);}
	.st18{fill:#F4ECB8;}
	.st19{opacity:0.36;fill:#8D3A3C;}
	.st20{opacity:0.26;}
	.st21{fill:#F4E7AE;}
	.st22{opacity:0.42;fill:#F4ECB8;}
	.st23{opacity:0.42;}
	.st24{fill:#F2A01F;}
</style>
<g>
	<g>
		<linearGradient id="SVGID_1_" gradientUnits="userSpaceOnUse" x1="375" y1="501.8087" x2="375" y2="-9.094947e-13">
			<stop  offset="0" style="stop-color:#E6D690"/>
			<stop  offset="0.1601" style="stop-color:#E7D391"/>
			<stop  offset="0.371" style="stop-color:#E9C995"/>
			<stop  offset="0.61" style="stop-color:#ECB89B"/>
			<stop  offset="0.8681" style="stop-color:#F09F9F"/>
			<stop  offset="1" style="stop-color:#F591A0"/>
		</linearGradient>
		<rect class="st0" width="750" height="501.8"/>
	</g>
	<path class="st1" d="M455.5,67.2h294c0,0-53-68.2-138-51.2c0,0-20,6-39,22.1C572.5,38.1,459.5,24.1,455.5,67.2z"/>
	<path class="st1" d="M2.5,293.1h222c0,0-40-50.8-104.2-38.1c0,0-15.1,4.5-29.4,16.4C90.9,271.4,5.6,260.9,2.5,293.1z"/>
	<path class="st2" d="M245.8,96.3c0,0-2.6-5.3-7-7.9c5.3-4.2,6.9-13.1,6.9-13.1c-8.3-0.4-12.6,2.2-14.9,5.3
		c-0.8-5.8-6.5-10.6-6.5-10.6c-3.6,6-3.8,10.2-2.7,13.2c-3.8-0.5-7.6,0.6-7.6,0.6c2.7,6.5,6.6,7.8,9.7,7.5c-1.5,0.9-5.7,3.6-8,4.2
		c0,0,0.7,2,1.7,1.8c0.7-0.1,4.9-3,7.1-4.5c-1.6,3.2-1.9,7.6,3.2,12.3c0,0,3.6-4.7,4.4-9.3C234.7,97.6,238.9,98.5,245.8,96.3z
		 M228.6,88C228.6,88,228.6,88,228.6,88C228.6,88,228.6,87.9,228.6,88C228.6,88,228.6,88,228.6,88z"/>
	<path class="st2" d="M248.5,137.8c0,0,3.1-0.4,5.2-2.1c1.2,3.4,5.3,5.8,5.3,5.8c1.6-4.1,1.1-6.7-0.1-8.4c3,0.6,6.4-1.4,6.4-1.4
		c-2.3-2.9-4.4-3.7-6.1-3.6c0.9-1.8,1-3.9,1-3.9c-3.7,0.2-5,1.9-5.4,3.5c-0.2-0.9-0.8-3.5-0.7-4.7c0,0-1.1,0-1.2,0.6
		c-0.1,0.4,0.6,3,1,4.3c-1.3-1.3-3.4-2.3-6.7-0.5c0,0,1.7,2.6,3.9,3.8C249.8,132.1,248.6,134,248.5,137.8z M255.6,130.6
		C255.6,130.6,255.6,130.6,255.6,130.6C255.6,130.6,255.6,130.6,255.6,130.6C255.6,130.6,255.6,130.6,255.6,130.6z"/>
	<path class="st3" d="M268.6,90.2c0,0,3.9,1.8,7.6,1.2c-1.1,4.8,2.1,10.6,2.1,10.6c4.9-3.6,6.1-7.1,5.9-9.8c3.1,2.9,8.5,3,8.5,3
		c-0.7-5-2.6-7.5-4.5-8.6c2.3-1.5,4-3.9,4-3.9c-4.5-2.4-7.3-1.3-8.9,0.2c0.4-1.2,1.6-4.7,2.6-6c0,0-1.3-0.8-1.8-0.2
		c-0.4,0.4-1.4,4-1.9,5.8c-0.6-2.5-2.4-5.2-7.5-5.5c0,0,0.1,4.3,1.8,7.3C274.2,84.4,271.4,85.8,268.6,90.2z M282.1,87
		C282.1,87,282.1,87,282.1,87C282.1,87,282.1,87,282.1,87C282.1,87,282.1,87,282.1,87z"/>
	<path class="st2" d="M564.8,164.4c0,0,0.4-2.9-0.7-5.2c3.4-0.3,6.5-3.5,6.5-3.5c-3.3-2.5-5.8-2.6-7.6-2c1.3-2.6,0.2-6.2,0.2-6.2
		c-3.1,1.5-4.4,3.2-4.7,4.7c-1.4-1.2-3.3-1.9-3.3-1.9c-0.7,3.4,0.6,5,1.9,5.8c-0.9,0-3.4-0.1-4.4-0.5c0,0-0.2,1,0.2,1.2
		c0.3,0.2,2.9,0.1,4.2,0.1c-1.5,0.9-2.9,2.6-2.1,6c0,0,2.8-0.9,4.4-2.6C560,161.8,561.4,163.4,564.8,164.4z M560.1,156.1
		C560.1,156.1,560.1,156.1,560.1,156.1C560.1,156.1,560.1,156.1,560.1,156.1C560.1,156.1,560.1,156.1,560.1,156.1z"/>
	<path class="st4" d="M578.4,198.7c0,0,2.9,0.6,5.2-0.4c0.1,3.4,3.1,6.7,3.1,6.7c2.7-3.2,2.9-5.7,2.4-7.5c2.5,1.4,6.1,0.6,6.1,0.6
		c-1.3-3.2-2.9-4.6-4.4-5c1.3-1.3,2.1-3.2,2.1-3.2c-3.4-0.9-5,0.3-5.9,1.6c0.1-0.9,0.3-3.4,0.8-4.4c0,0-1-0.3-1.2,0.1
		c-0.2,0.3-0.3,2.9-0.4,4.2c-0.8-1.6-2.4-3-5.8-2.4c0,0,0.8,2.8,2.3,4.6C581.2,194,579.6,195.4,578.4,198.7z M586.8,194.4
		C586.8,194.4,586.8,194.4,586.8,194.4C586.8,194.4,586.8,194.4,586.8,194.4C586.8,194.5,586.8,194.4,586.8,194.4z"/>
	<path class="st4" d="M514.7,189.7c0,0,5.7,1.1,10.4-0.8c0.1,6.7,6.1,13.3,6.1,13.3c5.3-6.3,5.8-11.2,4.8-14.8
		c5,2.9,12.1,1.2,12.1,1.2c-2.5-6.4-5.7-9.1-8.6-10c2.6-2.7,4.1-6.4,4.1-6.4c-6.7-1.8-10,0.5-11.7,3.1c0.1-1.7,0.6-6.7,1.6-8.8
		c0,0-2-0.6-2.5,0.3c-0.3,0.7-0.6,5.7-0.7,8.3c-1.5-3.1-4.7-6-11.5-4.9c0,0,1.5,5.6,4.6,9.1C520.4,180.3,517.1,183,514.7,189.7z
		 M531.5,181.2C531.5,181.2,531.5,181.2,531.5,181.2C531.5,181.2,531.6,181.2,531.5,181.2C531.5,181.2,531.5,181.2,531.5,181.2z"/>
	<rect y="372.3" class="st5" width="750" height="106.4"/>
	<path class="st6" d="M545.4,501.5c2.5-13,4.3-26.1,5.2-39.4c0-0.2,0-0.3,0-0.4c0-0.2,0-0.5,0-0.9c0-1.9,0.1-3.7,0-5.6
		c0-4.1-0.2-8.2-0.4-12.2c-0.3-4.1-0.7-8.2-1.2-12.3c-0.3-1.9-0.6-3.8-0.9-5.7c-0.1-0.7-0.1-1.2-0.2-1.5c-3.6-16.4-7.3-34.2-5.2-51
		l-118.2,1.3c0,0-7,26,5.8,49.9c12.8,24,3.2,77.9,3.2,77.9H545.4z"/>
	<path class="st7" d="M566.1,373c0.4-3.5,0.7-7.1,0.7-10.7c0-46.2-37.3-83.7-83.4-83.7S400,316,400,362.2c0,3.6,0.3,7.2,0.7,10.7
		H566.1z"/>
	<path class="st7" d="M594.9,373c0.6-4.7,0.9-9.5,0.9-14.4c0-62.3-50.3-112.8-112.4-112.8S371,296.2,371,358.5
		c0,4.9,0.3,9.7,0.9,14.4H594.9z"/>
	<path class="st8" d="M542.9,373c0.3-2.5,0.5-5.1,0.5-7.8c0-33.5-27-60.6-60.4-60.6s-60.4,27.1-60.4,60.6c0,2.6,0.2,5.2,0.5,7.8
		H542.9z"/>
	<g>
		<g>
			<path class="st8" d="M430.9,382.2c4.1,0,8.2,0,12.3,0c3,0,3-2.6,0-2.6c-4.1,0-8.2,0-12.3,0C427.9,379.6,427.9,382.2,430.9,382.2
				L430.9,382.2z"/>
		</g>
		<g>
			<path class="st8" d="M448.1,387.9c1.6,0,3.3,0,4.9,0c3,0,3-2.6,0-2.6c-1.6,0-3.3,0-4.9,0C445.2,385.2,445.2,387.9,448.1,387.9
				L448.1,387.9z"/>
		</g>
		<g>
			<path class="st8" d="M456.2,381.2c2.3,0,4.5,0,6.8,0c3,0,3-2.6,0-2.6c-2.3,0-4.5,0-6.8,0C453.2,378.6,453.2,381.2,456.2,381.2
				L456.2,381.2z"/>
		</g>
		<g>
			<path class="st8" d="M459.8,397c1.8,0,3.7,0,5.5,0c3,0,3-2.6,0-2.6c-1.8,0-3.7,0-5.5,0C456.9,394.3,456.9,397,459.8,397
				L459.8,397z"/>
		</g>
		<g>
			<path class="st8" d="M468.5,389.3c3.9,0,7.8,0,11.7,0c3,0,3-2.6,0-2.6c-3.9,0-7.8,0-11.7,0C465.5,386.6,465.5,389.3,468.5,389.3
				L468.5,389.3z"/>
		</g>
		<g>
			<path class="st8" d="M480.8,380.8c1.6,0,3.3,0,4.9,0c3,0,3-2.6,0-2.6c-1.6,0-3.3,0-4.9,0C477.8,378.2,477.8,380.8,480.8,380.8
				L480.8,380.8z"/>
		</g>
		<g>
			<path class="st8" d="M480.8,404.7c1.2,0,2.5,0,3.7,0c1.2,0,2.4-0.6,2.3-1.3c-0.1-0.7-1-1.3-2.3-1.3c-1.2,0-2.5,0-3.7,0
				c-1.2,0-2.4,0.6-2.3,1.3C478.5,404.1,479.5,404.7,480.8,404.7L480.8,404.7z"/>
		</g>
		<g>
			<path class="st8" d="M485.7,395.9c3.3,0,6.6,0,9.9,0c3,0,3-2.6,0-2.6c-3.3,0-6.6,0-9.9,0C482.7,393.3,482.7,395.9,485.7,395.9
				L485.7,395.9z"/>
		</g>
		<g>
			<path class="st8" d="M499.9,380.5c3.5,0,7,0,10.5,0c3,0,3-2.6,0-2.6c-3.5,0-7,0-10.5,0C496.9,377.9,496.9,380.5,499.9,380.5
				L499.9,380.5z"/>
		</g>
		<g>
			<path class="st8" d="M529.5,381.2c1.4,0,2.9,0,4.3,0c3,0,3-2.6,0-2.6c-1.4,0-2.9,0-4.3,0C526.5,378.6,526.5,381.2,529.5,381.2
				L529.5,381.2z"/>
		</g>
		<g>
			<path class="st8" d="M503,391c2.3,0,4.5,0,6.8,0c3,0,3-2.6,0-2.6c-2.3,0-4.5,0-6.8,0C500,388.4,500,391,503,391L503,391z"/>
		</g>
		<g>
			<path class="st8" d="M518.4,399.8c1.4,0,2.9,0,4.3,0c3,0,3-2.6,0-2.6c-1.4,0-2.9,0-4.3,0C515.4,397.1,515.4,399.8,518.4,399.8
				L518.4,399.8z"/>
		</g>
		<g>
			<path class="st8" d="M499.3,407.1c1.6,0,3.3,0,4.9,0c3,0,3-2.6,0-2.6c-1.6,0-3.3,0-4.9,0C496.3,404.5,496.3,407.1,499.3,407.1
				L499.3,407.1z"/>
		</g>
	</g>
	<g>
		<path class="st9" d="M587.1,370.9c0,0,14.9-21,42.3-21c27.4,0,39.9-10.5,46.2-13.6c6.3-3.1,27.4-18.9,52.4,9.4l18.8,23.1
			L587.1,370.9z"/>
		<path class="st10" d="M587.1,370.9c0,0,14.9-9.9,42.3-9.9c27.4,0,39.9-4.9,46.2-6.4c6.3-1.5,27.4-8.9,52.4,4.4l18.8,10.8
			L587.1,370.9z"/>
	</g>
	<g class="st11">
		<g>
			<path class="st12" d="M631.5,338.1c-2.7-0.1-5.5-0.1-7.8-1.1c-2.3-1-3.8-3.3-2.3-5c1-1.1,3.1-1.5,3.9-2.7
				c1.6-2.5-3.8-5.4-2.1-7.9c0.6-0.8,1.7-1.2,2.4-1.9c2.1-2.1-0.3-5.6,2-7.6c1.1-1,3.2-1.3,4.9-0.8c1.7,0.5,2.9,1.5,3.7,2.7
				c1.1,1.8,1.4,4,3.3,5.4c0.9,0.7,2.2,1.1,3.2,1.8c1.8,1.3,2.2,3.5,0.9,5c-0.4,0.5-0.9,0.9-1.1,1.5c-0.4,1.5,2.2,2.5,3.2,3.8
				c1.4,1.7,0,4.1-2.4,5.2s-5.2,1.2-7.9,1.4c-1.8,0.1-3.5,0.2-5.3,0.2"/>
		</g>
		<path class="st13" d="M632.5,350.4h5.7l-2.1-14.9l2-7.3c0,0-1.5,2.5-2.4,4.1l-0.9-6.4l1.4-4.7l-1.8,2.4l-2.3-6.9l0.3,7.2
			c0,0,0,0.1-0.1,0.1c0,0,0.1,2.1,0.3,5.2l-4.2-4.6l4.3,8C632.9,340,633.1,349.5,632.5,350.4z"/>
	</g>
	<g>
		<path class="st9" d="M91,353.5c0,0,72.1-28.3,123.2-8.8c51,19.4,61.6,23.8,80.9,19.4c19.4-4.4,74.8-14.1,113.5,7.1h-322H61.1
			L91,353.5z"/>
		<path class="st10" d="M91,363.7c0,0,72.1-11.9,123.2-3.7c51,8.2,61.6,10,80.9,8.2c19.4-1.9,74.8-5.9,113.5,3h-322H61.1L91,363.7z"
			/>
	</g>
	<g>
		
			<rect x="481.7" y="430.7" transform="matrix(0.9998 -2.012759e-02 2.012759e-02 0.9998 -8.745 9.8211)" class="st13" width="3.7" height="17.3"/>
		
			<rect x="551.4" y="429.3" transform="matrix(0.9998 -2.010015e-02 2.010015e-02 0.9998 -8.691 11.2089)" class="st13" width="3.7" height="17.3"/>
		<path class="st13" d="M545.2,411.8l-54.7,1.1c-4,0.1-7.3,2.6-7.2,5.7l0.2,8.3c0.1,3.1,3.4,5.5,7.5,5.4l54.7-1.1
			c4-0.1,7.3-2.6,7.2-5.7l-0.2-8.3C552.6,414.1,549.2,411.7,545.2,411.8z M548.2,426.5c0,0.6-0.7,1.2-1.5,1.2l-57.6,1.2
			c-0.8,0-1.5-0.5-1.5-1.1l0,0c0-0.6,0.7-1.2,1.5-1.2l57.6-1.2C547.5,425.3,548.2,425.8,548.2,426.5L548.2,426.5z M546.6,422.6
			l-57.6,1.2c-0.8,0-1.5-0.5-1.5-1.1c0-0.6,0.7-1.2,1.5-1.2l57.6-1.2c0.8,0,1.5,0.5,1.5,1.1C548.1,422,547.4,422.6,546.6,422.6z
			 M546.5,417.5l-57.6,1.2c-0.8,0-1.5-0.5-1.5-1.1c0-0.6,0.7-1.2,1.5-1.2l57.6-1.2c0.8,0,1.5,0.5,1.5,1.1
			C548,417,547.3,417.5,546.5,417.5z"/>
		<path class="st13" d="M551.9,434.3l-67.3,1.4c-1.8,0-3.4-1.4-3.4-3.3l0-0.3c0-1.8,1.4-3.4,3.3-3.4l67.3-1.4c1.8,0,3.4,1.4,3.4,3.3
			l0,0.3C555.2,432.7,553.8,434.3,551.9,434.3z"/>
	</g>
	<path class="st12" d="M0,346c0,0,27.9-29.1,153.2,31c125.3,60.1,330.2,89.2,437.7,60.1C698.3,408.1,750,419.7,750,419.7v81.5H0V346
		z"/>
	<path class="st14" d="M0,435.2c0,0,29.8-12.4,154.8,13.2c125,25.6,329.4,37.9,436.5,25.6c107.1-12.4,158.7-7.4,158.7-7.4v34.6H2
		L0,435.2z"/>
	<g>
		<g class="st15">
			<path class="st16" d="M253.7,343.5c-3.8-0.3-7.9-0.3-11.2-2.2c-3.3-1.9-5.5-6.5-3.3-9.7c1.5-2.1,4.4-3,5.5-5.3
				c2.3-4.9-5.5-10.5-3-15.4c0.8-1.5,2.5-2.4,3.5-3.8c3.1-4.1-0.5-10.9,2.8-14.9c1.7-2,4.7-2.5,7.1-1.6c2.4,0.9,4.2,3,5.3,5.4
				c1.6,3.5,2,7.8,4.7,10.5c1.4,1.3,3.2,2.2,4.5,3.5c2.6,2.5,3.1,6.8,1.3,9.8c-0.5,0.9-1.3,1.8-1.5,2.8c-0.6,3,3.1,4.9,4.7,7.5
				c2,3.4-0.1,8.1-3.4,10.2s-7.5,2.4-11.4,2.7c-2.5,0.2-5.1,0.3-7.6,0.5"/>
		</g>
		<path class="st13" d="M255.1,367.6h8.2l-3.1-29.2l2.8-14.2c0,0-2.2,4.9-3.5,8.1l-1.3-12.4l2.1-9.2l-2.6,4.6l-3.3-13.5l0.4,14
			c0,0.1-0.1,0.2-0.1,0.3c0,0,0.2,4.2,0.4,10.1l-6-8.9l6.2,15.6C255.7,347.3,256,365.7,255.1,367.6z"/>
	</g>
	<g>
		<g>
			<path class="st12" d="M208.5,343.2c-3.8-0.2-7.9-0.2-11.2-1.6c-3.3-1.4-5.5-4.8-3.3-7.1c1.5-1.6,4.4-2.2,5.5-3.9
				c2.3-3.6-5.5-7.8-3-11.3c0.8-1.1,2.5-1.8,3.5-2.8c3.1-3-0.5-8,2.8-10.9c1.7-1.5,4.7-1.8,7.1-1.2c2.4,0.7,4.2,2.2,5.3,3.9
				c1.6,2.6,2,5.7,4.7,7.8c1.4,1,3.2,1.6,4.5,2.6c2.6,1.8,3.1,5,1.3,7.2c-0.5,0.7-1.3,1.3-1.5,2.1c-0.6,2.2,3.1,3.6,4.7,5.5
				c2,2.5-0.1,5.9-3.4,7.5c-3.3,1.6-7.5,1.8-11.4,2c-2.5,0.1-5.1,0.2-7.6,0.3"/>
		</g>
		<path class="st13" d="M209.9,360.9h8.2l-3.1-21.5l2.8-10.5c0,0-2.2,3.6-3.5,6l-1.3-9.1l2.1-6.7l-2.6,3.4l-3.3-9.9l0.4,10.3
			c0,0.1-0.1,0.1-0.1,0.2c0,0,0.2,3.1,0.4,7.5l-6-6.5l6.2,11.5C210.5,345.9,210.8,359.5,209.9,360.9z"/>
	</g>
	<path class="st2" d="M275.2,458.5c0,0-2.4-3.6-6.3-5.3c4.8-2.9,6.2-8.8,6.2-8.8c-7.5-0.2-11.4,1.5-13.4,3.6
		c-0.7-3.9-5.9-7.1-5.9-7.1c-3.3,4-3.4,6.9-2.4,8.9c-3.4-0.3-6.9,0.4-6.9,0.4c2.4,4.4,6,5.2,8.7,5.1c-1.3,0.6-5.2,2.5-7.2,2.8
		c0,0,0.7,1.3,1.6,1.2c0.7-0.1,4.4-2,6.4-3.1c-1.4,2.1-1.7,5.1,2.9,8.3c0,0,3.2-3.2,4-6.3C265.2,459.3,269,460,275.2,458.5z
		 M259.7,452.9C259.6,452.9,259.6,452.9,259.7,452.9C259.6,452.9,259.6,452.9,259.7,452.9C259.7,452.9,259.7,452.9,259.7,452.9z"/>
	<path class="st2" d="M246.7,487.1c0,0,2.8-0.3,4.7-1.4c1.1,2.3,4.8,3.9,4.8,3.9c1.5-2.8,1-4.5-0.1-5.6c2.7,0.4,5.8-1,5.8-1
		c-2.1-1.9-4-2.5-5.5-2.4c0.8-1.2,0.9-2.6,0.9-2.6c-3.4,0.1-4.5,1.3-4.9,2.4c-0.2-0.6-0.7-2.4-0.6-3.2c0,0-1,0-1.1,0.4
		c-0.1,0.3,0.6,2,0.9,2.9c-1.2-0.9-3.1-1.5-6-0.4c0,0,1.5,1.8,3.5,2.6C247.9,483.2,246.8,484.5,246.7,487.1z M253.1,482.2
		C253.1,482.2,253.1,482.2,253.1,482.2C253.2,482.2,253.2,482.2,253.1,482.2C253.2,482.2,253.1,482.2,253.1,482.2z"/>
	<path class="st2" d="M679.1,454.8c0,0,2.8-0.3,4.7-1.4c1.1,2.3,4.8,3.9,4.8,3.9c1.5-2.8,1-4.5-0.1-5.6c2.7,0.4,5.8-1,5.8-1
		c-2.1-1.9-4-2.5-5.5-2.4c0.8-1.2,0.9-2.6,0.9-2.6c-3.4,0.1-4.5,1.3-4.9,2.4c-0.2-0.6-0.7-2.4-0.6-3.2c0,0-1,0-1.1,0.4
		c-0.1,0.3,0.6,2,0.9,2.9c-1.2-0.9-3.1-1.5-6-0.4c0,0,1.5,1.8,3.5,2.6C680.3,451,679.2,452.3,679.1,454.8z M685.6,450
		C685.6,450,685.6,450,685.6,450C685.6,450,685.6,450,685.6,450C685.6,450,685.6,450,685.6,450z"/>
	<path class="st2" d="M709.2,457.6c0,0,2.8-0.3,4.7-1.4c1.1,2.3,4.8,3.9,4.8,3.9c1.5-2.8,1-4.5-0.1-5.6c2.7,0.4,5.8-1,5.8-1
		c-2.1-1.9-4-2.5-5.5-2.4c0.8-1.2,0.9-2.6,0.9-2.6c-3.4,0.1-4.5,1.3-4.9,2.4c-0.2-0.6-0.7-2.4-0.6-3.2c0,0-1,0-1.1,0.4
		c-0.1,0.3,0.6,2,0.9,2.9c-1.2-0.9-3.1-1.5-6-0.4c0,0,1.5,1.8,3.5,2.6C710.4,453.7,709.3,455,709.2,457.6z M715.6,452.8
		C715.6,452.8,715.6,452.8,715.6,452.8C715.6,452.8,715.7,452.8,715.6,452.8C715.6,452.8,715.6,452.8,715.6,452.8z"/>
	<g>
		<defs>
			<rect id="SVGID_2_" width="750" height="501.8"/>
		</defs>
		<clipPath id="SVGID_3_">
			<use xlink:href="#SVGID_2_"  style="overflow:visible;"/>
		</clipPath>
		<g class="st17">
			<g>
				<g>
					<g>
						<path class="st16" d="M40.8,248c-33.1-2.4-68-2.4-96.9-18.8c-28.9-16.4-47.8-56.5-28.8-83.9c12.7-18.4,38.3-25.8,47.9-45.9
							C-16.9,56.9-84.6,8.2-62.6-33.3c6.9-13.1,21.2-20.6,30.1-32.5c26.7-35.7-4.1-94.3,24.4-128.6c14.3-17.2,40.3-21.4,61.2-13.5
							c20.8,7.9,36.6,26,46,46.3c14.2,30.4,16.9,67.5,40.6,91.1c11.7,11.6,27.4,18.6,39.3,30.1C201-19.1,206,17.9,190.4,44.5
							c-4.7,8-11.2,15.4-13,24.6c-5.2,25.9,26.9,42.1,40.3,64.8c17.4,29.4-0.5,69.6-29.2,88.1C159.8,240.4,124,243,90,245.1
							c-21.8,1.3-43.7,2.6-65.5,3.9"/>
					</g>
					<g>
						<g>
							<g>
								<path class="st18" d="M217.7,133.9c-13.4-22.7-45.5-38.9-40.3-64.8c1.8-9.2,8.3-16.5,13-24.6C206,17.9,201-19.1,178.9-40.4
									c-11.9-11.5-27.5-18.4-39.3-30.1c-23.7-23.6-26.4-60.7-40.6-91.1c-9.5-20.2-25.2-38.4-46-46.3c-13.8-5.3-29.9-5.1-43.4,0.6
									c6.7,0.2,13.3,1.4,19.5,3.8c20.8,7.9,36.6,26,46,46.3c14.2,30.4,16.9,67.5,40.6,91.1c11.7,11.6,27.4,18.6,39.3,30.1
									c22.1,21.4,27.1,58.4,11.5,84.9c-4.7,8-11.2,15.4-13,24.6c-5.2,25.9,26.9,42.1,40.3,64.8c17.4,29.4-0.5,69.6-29.2,88.1
									c-11.6,7.5-24.3,12.3-37.6,15.6c21.9-2.8,43.1-8.1,61.5-20C217.1,203.5,235,163.3,217.7,133.9z"/>
							</g>
						</g>
						<path class="st18" d="M179,161.7c0,0-0.2-10-9.5-11.5C169.5,150.2,169.8,161,179,161.7z"/>
						<path class="st18" d="M176.7,169.9c0,0-9.5-3-13.9,5.3C162.8,175.2,173.1,178.4,176.7,169.9z"/>
						<path class="st16" d="M208,140.2c0,0-1.1-9.9-10.5-10.6C197.5,129.6,198.7,140.3,208,140.2z"/>
						<path class="st16" d="M157-46.5c0,0-1.1-9.9-10.5-10.6C146.5-57.1,147.7-46.3,157-46.5z"/>
						<path class="st18" d="M157.4,0c0,0-4.3-9-13.4-6.5C144.1-6.5,148.8,3.2,157.4,0z"/>
						<path class="st16" d="M171.4-30.3c0,0-4.3-9-13.4-6.5C158-36.7,162.7-27.1,171.4-30.3z"/>
						<g>
							<path class="st18" d="M187.9,171.5c-0.3-0.3-0.6-0.6-0.9-0.9c-0.9-0.9-2.6-1-3.5,0c-0.9,1-1,2.6,0,3.5
								c0.3,0.3,0.6,0.6,0.9,0.9c0.9,0.9,2.6,1,3.5,0C188.8,174,188.9,172.5,187.9,171.5L187.9,171.5z"/>
						</g>
						<g>
							<path class="st18" d="M161.5-9.2c0.3,0,0.6,0,0.9,0c1.3,0,2.6-1.2,2.5-2.5c-0.1-1.4-1.1-2.5-2.5-2.5c-0.3,0-0.6,0-0.9,0
								c-1.3,0-2.6,1.2-2.5,2.5C159-10.3,160.1-9.2,161.5-9.2L161.5-9.2z"/>
						</g>
						<path class="st18" d="M81.4-107c1.8,4.8,3.7,9.4,5.9,13.9c2.1,4.5,4.5,8.9,7.1,13.1c5.2,8.4,11.5,16.1,19.2,21.8
							c1,0.7,2,1.4,3,2l3.1,1.9l3.3,2c1.1,0.7,2.2,1.4,3.2,2.1c4.2,2.9,8.4,6,12.1,9.6l2.7,2.8c0.8,1,1.7,1.9,2.5,3
							c1.6,2.1,3.1,4.2,4.3,6.5c2.5,4.6,3.9,9.7,4.1,14.8c-1.3-4.9-3.3-9.5-6.2-13.5c-2.8-4-6.3-7.5-10-10.6
							c-3.8-3.1-7.8-5.9-12-8.5c-1.1-0.6-2.1-1.3-3.2-1.9l-3.2-1.8l-3.3-2c-1.1-0.7-2.2-1.4-3.3-2.2c-2.1-1.6-4.1-3.3-6-5.1
							c-1.8-1.8-3.6-3.8-5.2-5.8c-3.3-4-6-8.4-8.4-13c-1.2-2.3-2.3-4.6-3.3-7c-1-2.4-1.9-4.8-2.7-7.2C83.4-97.1,82.1-102,81.4-107z"
							/>
						<path class="st16" d="M175.9-22.7c2,3,3.5,6.3,4.8,9.6c1.3,3.4,2.3,6.8,3.1,10.3c0.8,3.5,1.3,7.1,1.6,10.7
							c0.3,3.6,0.2,7.3,0,10.9c-0.5,7.3-2.2,14.4-4.8,21.2c-2.7,6.7-6.3,13-10.8,18.6c3.1-6.4,5.8-12.9,7.8-19.6
							c2-6.7,3.2-13.5,3.7-20.4c0.5-6.9,0.3-13.9-0.7-20.8C179.8-9.1,178.2-16,175.9-22.7z"/>
						<path class="st18" d="M144.4,69.1c0.2,4.6,0.9,9.2,2,13.6c1,4.4,2.5,8.7,4.4,12.8c0.4,1,1,2,1.5,3c0.5,1,1,2,1.6,2.9l1.8,2.8
							l2,2.7c0.3,0.4,0.6,0.9,1,1.3l1.1,1.2c0.7,0.8,1.4,1.7,2.2,2.5l2.4,2.3l1.2,1.1l1.3,1.2c3.5,3.1,6.9,6.3,10.1,9.8l2.4,2.7
							l2.2,2.8c0.7,0.9,1.4,1.9,2.1,2.9c0.7,1,1.3,2.1,1.9,3.1c0.6,1,1.1,2.1,1.7,3.2c0.5,1.1,1,2.2,1.4,3.4c0.7,2.3,1.4,4.7,1.6,7
							c0.5,4.8,0.2,9.5-0.7,14.1c-0.2-4.7-0.5-9.3-1.7-13.6c-1.1-4.3-3-8.4-5.5-12c-2.5-3.6-5.5-7-8.7-10.2
							c-0.8-0.8-1.6-1.6-2.4-2.4c-0.8-0.8-1.6-1.6-2.5-2.3l-2.5-2.3l-2.6-2.3l-1.3-1.1l-1.3-1.3l-2.6-2.5c-0.8-0.9-1.6-1.8-2.3-2.8
							l-1.2-1.4c-0.4-0.5-0.7-1-1-1.5l-2-3l-1.7-3.2c-0.6-1-1.1-2.2-1.6-3.2c-0.5-1.1-1-2.2-1.3-3.3c-0.4-1.1-0.8-2.3-1.1-3.4
							c-0.3-1.2-0.6-2.3-0.9-3.5c-0.2-1.2-0.4-2.3-0.7-3.5c-0.2-1.2-0.3-2.3-0.5-3.5C143.5,78.4,143.5,73.7,144.4,69.1z"/>
						<path class="st18" d="M145.9,225.7c4.2-3,8.3-5.9,12.2-8.9c4-3,7.8-6.1,11.3-9.4c3.6-3.3,6.9-6.9,9.8-10.8c1.4-2,2.7-4,4-6.2
							c1.2-2.2,2.2-4.5,3.2-6.8c0.1,2.6-0.3,5.2-0.9,7.8c-0.7,2.5-1.7,5-2.9,7.4c-2.5,4.7-5.9,8.8-9.7,12.4
							c-3.8,3.6-8.1,6.6-12.6,9.1C155.7,222.5,150.9,224.6,145.9,225.7z"/>
						<path class="st16" d="M207.4,144.4c2.5,5.7,3.8,11.8,4.3,18.1c0.4,6.2-0.1,12.6-1.7,18.7c-0.8,3.1-1.9,6-3.3,8.9
							c-1.4,2.8-3,5.6-4.9,8.1c-3.8,5-8.5,9.3-13.8,12.4c4.3-4.4,8.2-9.1,11.3-14.2c1.5-2.6,2.9-5.2,4-7.9c1.1-2.7,2.1-5.5,2.9-8.4
							c1.5-5.7,2.3-11.6,2.5-17.6C208.7,156.5,208.3,150.5,207.4,144.4z"/>
					</g>
				</g>
				<g>
					<polygon class="st13" points="136.8,35.2 80.3,148.8 79.8,126.6 63.8,-64.6 47.8,-64.5 45.9,208.1 33.7,168.9 36.3,150.8 
						32.9,144.7 28.6,160.4 16.6,133.8 44.8,240.3 45.3,237.9 40.9,464 87.6,464 81.2,185.4 112.9,105.5 126.5,93.6 113.5,95.2 
											"/>
					<polygon class="st19" points="58.8,464 58.8,-64.5 47.8,-64.5 45.9,208.1 33.7,168.9 36.3,150.8 32.9,144.7 28.6,160.4 
						16.6,133.8 44.8,240.3 45.3,237.9 40.9,464 					"/>
					<g>
						<path class="st8" d="M62.7-27.8c-0.2,13.8-0.3,27.5,0,41.3C62.8,27.2,63.2,41,64,54.7c0.9,13.7,1.9,27.5,4.2,40.9
							c0.3,1.7,0.6,3.4,0.8,5.1l0.2,1.3c0.1,0.4,0.1,0.9,0.1,1.3l0.2,2.6c0.3,3.5,0.4,6.9,0.4,10.4c0,6.9-0.2,13.8-0.6,20.7
							c-0.9,13.8-2.3,27.5-4,41.2c-1.7,13.7-3.5,27.3-5.6,40.9c-2.1,13.6-4.3,27.2-6.6,40.8c-2.4,13.6-4.8,27.1-7.6,40.6
							c2.3-13.6,4.5-27.2,6.6-40.8c2.1-13.6,4.2-27.2,6.1-40.8c3.8-27.3,7.4-54.6,9.1-82c0.5-6.9,0.7-13.7,0.7-20.6
							c0-3.4-0.1-6.8-0.3-10.2c-0.2-3.4-0.7-6.7-1.3-10.1l-0.8-5.1c-0.3-1.7-0.4-3.4-0.7-5.1l-0.6-5.1l-0.5-5.2
							c-0.3-3.4-0.6-6.9-0.8-10.3c-0.2-3.4-0.4-6.9-0.6-10.3C61.3,27.3,61.5-0.3,62.7-27.8z"/>
						<path class="st8" d="M68.7,214.9c-0.3,6.7-0.9,13.4-1.6,20.1c-0.7,6.7-1.5,13.4-2.5,20.1c-1,6.7-2,13.3-3.4,19.9
							c-0.7,3.3-1.4,6.6-2.3,9.9c-0.2,0.8-0.4,1.6-0.7,2.4l-0.8,2.4c-0.4,1.6-1.2,3.2-1.8,4.7c1-3.2,1.8-6.5,2.3-9.8
							c0.3-1.6,0.6-3.3,0.9-5c0.3-1.7,0.6-3.3,0.8-5l0.8-5l0.7-5l1.5-10l2.9-20C66.5,228.2,67.6,221.6,68.7,214.9z"/>
						<path class="st8" d="M66.7,383.1c0.1-11.6,0.5-23.2,1-34.8c0.6-11.6,1.4-23.2,2.4-34.7c1-11.6,2.3-23.1,4-34.6l1.4-8.6
							c0.5-2.9,1.1-5.7,1.6-8.6c0.3-1.4,0.6-2.8,1-4.2l1-4.2c0.3-1.4,0.8-2.8,1.2-4.2l1.4-4.1l-1.1,4.2c-0.4,1.4-0.8,2.8-1,4.2
							l-0.8,4.3c-0.3,1.4-0.6,2.8-0.7,4.3c-0.4,2.9-0.9,5.7-1.3,8.6l-1.1,8.6c-0.6,5.8-1.4,11.5-1.9,17.3
							c-0.6,5.8-1.1,11.5-1.6,17.3c-1,11.5-1.9,23.1-2.8,34.6L66.7,383.1z"/>
						<path class="st8" d="M59.7,323.7c-0.9,6.4-2,12.8-2.9,19.1c-0.5,3.2-0.8,6.4-1.1,9.5c-0.2,3.2-0.4,6.4-0.1,9.6
							c-1.1-3.1-1.4-6.4-1.5-9.7c-0.1-1.6,0.1-3.3,0.1-4.9c0.1-1.6,0.3-3.3,0.5-4.9c0.2-1.6,0.5-3.2,0.8-4.8
							c0.3-1.6,0.7-3.2,1.1-4.8C57.5,329.8,58.4,326.7,59.7,323.7z"/>
						<path class="st8" d="M81.7,300.5c-1,7.3-1.7,14.7-2.4,22c-0.3,3.7-0.7,7.3-0.9,11c-0.2,3.7-0.5,7.4-0.6,11
							c-0.3,7.4-0.3,14.7,0.3,22.1c0.3,3.7,0.7,7.3,1.4,10.9c0.7,3.6,1.7,7.2,3.2,10.6c-1.9-3.2-3.1-6.7-4.1-10.3
							c-0.9-3.6-1.6-7.3-2-11c-0.9-7.4-1-14.9-0.7-22.3c0.3-7.4,0.9-14.8,1.9-22.2C78.7,315,80,307.7,81.7,300.5z"/>
						<path class="st8" d="M78.7,143.4c0.3,7.1,0.4,14.1,0.4,21.2c0,7.1-0.1,14.1-0.3,21.2c-0.2,7.1-0.5,14.1-1,21.2
							c-0.5,7-1,14.1-2.1,21.1c0.1-3.5,0.3-7,0.3-10.6l0.2-10.6c0.1-7.1,0.3-14.1,0.5-21.2C77.2,171.6,77.7,157.5,78.7,143.4z"/>
						<path class="st8" d="M52.6,190.7c0.2-4.7,0.6-9.5,1-14.2c0.4-4.7,0.9-9.4,1.4-14.1c0.5-4.7,1-9.4,1.6-14.1
							c0.6-4.7,1.2-9.4,2-14.1c0.1,4.7-0.1,9.5-0.4,14.2c-0.3,4.7-0.7,9.4-1.2,14.1c-0.5,4.7-1.1,9.4-1.8,14.1
							C54.5,181.4,53.7,186.1,52.6,190.7z"/>
						<path class="st8" d="M51.6,135.4c0.4-5.7,0.7-11.4,1.1-17.1c0.4-5.7,0.8-11.4,1.1-17.1c0.3-5.7,0.6-11.4,0.8-17.1
							c0.1-5.7,0.2-11.4,0-17.1c1.1,5.6,1.5,11.4,1.6,17.1c0.2,5.7-0.1,11.5-0.4,17.2c-0.3,5.7-0.9,11.4-1.6,17.1
							C53.6,124.1,52.8,129.7,51.6,135.4z"/>
						<path class="st8" d="M61.7,103.1c0.3,1.5,0.5,3.1,0.5,4.6c0.1,1.5,0.1,3,0,4.5c-0.1,1.5-0.2,3-0.5,4.5c-0.2,1.5-0.5,3-1,4.5
							c-0.3-1.5-0.5-3.1-0.5-4.6c-0.1-1.5-0.1-3,0-4.5c0.1-1.5,0.2-3,0.5-4.5C60.9,106.1,61.2,104.6,61.7,103.1z"/>
						<path class="st8" d="M51.6-28.8c0.9,6.2,1.6,12.4,2.1,18.6C54.3-4,54.7,2.2,55,8.4c0.2,6.2,0.5,12.5,0.3,18.7
							c-0.1,3.1-0.1,6.2-0.4,9.4c-0.1,0.8-0.1,1.6-0.2,2.3l-0.3,2.3c-0.1,1.6-0.5,3.1-0.8,4.6c0.3-3.1,0.4-6.2,0.4-9.3
							c0-1.6,0-3.1-0.1-4.7c-0.1-1.6,0-3.1-0.1-4.7l-0.2-4.7l-0.2-4.7L53,8.5l-0.8-18.6C51.9-16.4,51.8-22.6,51.6-28.8z"/>
						<path class="st8" d="M87.8,155.5c0.6-2.8,1.4-5.4,2.3-8.1c0.9-2.6,2-5.2,3.1-7.8c1.2-2.5,2.4-5,3.9-7.4c1.4-2.4,3-4.7,4.8-6.9
							c-1.1,2.6-2.2,5.1-3.4,7.6l-3.4,7.6c-1.2,2.5-2.3,5-3.5,7.5C90.3,150.5,89.1,153,87.8,155.5z"/>
						<path class="st8" d="M96.8,125.3c0.6-1.8,1.3-3.4,2-5.1c0.7-1.6,1.5-3.3,2.4-4.8c0.8-1.6,1.7-3.1,2.6-4.7
							c0.9-1.5,1.9-3.1,3-4.5c-0.4,1.8-0.9,3.6-1.6,5.2c-0.7,1.7-1.4,3.3-2.3,4.9c-0.8,1.6-1.8,3.2-2.8,4.7
							C99.2,122.5,98.1,123.9,96.8,125.3z"/>
						<path class="st8" d="M29.6,173.6c1.6,3.1,2.9,6.3,4.2,9.6c1.3,3.2,2.5,6.5,3.7,9.7c1.2,3.3,2.3,6.6,3.3,9.9
							c1,3.3,2,6.7,2.8,10.1c-1.6-3.1-2.9-6.3-4.2-9.6c-1.3-3.2-2.5-6.5-3.7-9.7c-1.2-3.3-2.3-6.6-3.3-9.9
							C31.3,180.4,30.3,177,29.6,173.6z"/>
					</g>
				</g>
			</g>
			<g>
				<g>
					<g>
						<path class="st13" d="M34.4,435.3c-10.1-31-14-63.7-11.5-96.2c0.1-0.8-1.2-0.8-1.2,0c-2.5,32.6,1.4,65.4,11.5,96.5
							C33.5,436.4,34.7,436,34.4,435.3L34.4,435.3z"/>
					</g>
					<g>
						<path class="st13" d="M153.2,462.1c-1.3-42.2-2.5-84.3-3.8-126.5c0-0.8-1.3-0.8-1.2,0c1.3,42.2,2.5,84.3,3.8,126.5
							C152,462.9,153.2,462.9,153.2,462.1L153.2,462.1z"/>
					</g>
					<g>
						<path class="st13" d="M161.6,465.7c17.4-30.2,25.2-65.2,22.4-100c-0.1-0.8-1.3-0.7-1.2,0.1c2.8,34.6-5,69.3-22.3,99.3
							C160.1,465.8,161.2,466.4,161.6,465.7L161.6,465.7z"/>
					</g>
					<ellipse class="st13" cx="22" cy="356.3" rx="5.2" ry="14.2"/>
					<path class="st13" d="M153.6,353.2c0,7.8-2.3,14.1-5.2,14.1s-5.2-6.3-5.2-14.1s2.3-14.1,5.2-14.1S153.6,345.4,153.6,353.2z"/>
					<path class="st13" d="M189,385c-0.6,7.8-3.4,13.9-6.3,13.7c-2.8-0.2-4.6-6.7-4-14.5s3.4-13.9,6.3-13.7
						C187.8,370.7,189.6,377.2,189,385z"/>
				</g>
				<g>
					<path class="st16" d="M158.5,473.9c15.3-9.4,26.8-20.3,26.3-31.6c-0.6-15-20.1-9.8-41.9,3.1c10.4-14.7,16.6-29.3,11.8-39.5
						c-6.3-13.3-21.9-1.3-36.6,18.7c3.8-16.2,4.1-30.6-3.6-38c-11.2-10.9-22.2,8.6-28.9,34.9c-3.1-17.3-8.9-31.4-19.3-35.1
						c-13.9-4.9-16.4,14.6-12.7,39.2c-15.4-21.8-32.2-35.8-38.9-21.8c-4.9,10.2,1.4,24.8,11.8,39.5c-21.8-12.9-41.3-18.1-41.9-3.1
						c-0.4,11.9,12.3,23.3,28.8,33.1c-27.7-4.6-51-2.6-45.4,12.3c10.4,27.8,96,21.8,116.3,20c-0.1,0.1-0.2,0.3-0.2,0.4
						c0,0,106.3,12.1,117.9-19.5C207.3,471.7,185.2,469.5,158.5,473.9z"/>
					<g class="st20">
						<path class="st18" d="M106.8,403.3c7.7,7.4,7.5,21.8,3.6,38c14.8-20,30.3-32,36.6-18.7c2.2,4.6,2.1,10.1,0.4,16.1
							c7.6-12.3,11.4-24.1,7.3-32.8c-6.3-13.3-21.9-1.3-36.6,18.7c3.8-16.2,4.1-30.6-3.6-38c-9.3-9-18.3,2.7-25,21.8
							C94.8,400.4,100.8,397.4,106.8,403.3z"/>
						<path class="st18" d="M135.3,462.1c21.8-12.9,41.3-18.1,41.9-3.1c0,0.1,0,0.2,0,0.4c5-5.5,8-11.2,7.8-17.1
							c-0.5-14.3-18.5-10.1-39.2,1.6C143.3,449.7,139.6,455.9,135.3,462.1z"/>
						<path class="st18" d="M172.5,472.2c-4.7,6.5-12.5,12.7-21.7,18.4c21.3-3.5,39.8-2.8,43.5,5.2c3.6-2.6,6.3-5.7,7.7-9.4
							C206.3,474.4,192.3,470.8,172.5,472.2z"/>
					</g>
					<g>
						<path class="st8" d="M35.4,430c1.3,1.7,2.5,3.6,3.5,5.4c1.1,1.9,2.1,3.8,2.9,5.8c-1.3-1.7-2.5-3.6-3.5-5.4
							C37.2,434,36.2,432.1,35.4,430z"/>
					</g>
					<g>
						<path class="st8" d="M53,440.2c1,2.2,1.7,4.4,2.4,6.6c0.7,2.2,1.3,4.5,1.7,6.8c-1-2.2-1.7-4.4-2.4-6.6
							C54,444.7,53.4,442.5,53,440.2z"/>
					</g>
					<g>
						<path class="st8" d="M64,402.3c0.7,1.6,1.1,3.3,1.5,4.9c0.4,1.7,0.7,3.4,0.8,5.1c-0.7-1.6-1.1-3.3-1.5-4.9
							C64.4,405.8,64.1,404.1,64,402.3z"/>
					</g>
					<g>
						<path class="st8" d="M71.5,434.7c0.7,1.3,1.4,2.7,1.9,4.2c0.5,1.4,0.9,2.9,1.3,4.4c0.3,1.5,0.5,3,0.6,4.5
							c0.1,1.5,0.1,3.1,0,4.6c-0.2-1.5-0.3-3-0.5-4.5c-0.2-1.5-0.5-3-0.8-4.4c-0.3-1.5-0.7-2.9-1.1-4.4
							C72.4,437.6,72,436.2,71.5,434.7z"/>
					</g>
					<g>
						<path class="st8" d="M101.7,403.4c0.5,1.8,0.6,3.8,0.5,5.7c-0.2,1.9-0.6,3.8-1.5,5.5c0.3-1.9,0.6-3.7,0.7-5.6
							C101.6,407.2,101.7,405.3,101.7,403.4z"/>
					</g>
					<g>
						<path class="st8" d="M95.7,432.4c0.3,2.2,0.5,4.4,0.7,6.7c0.2,2.2,0.3,4.5,0.5,6.7c0.1,2.2,0.2,4.5,0.3,6.7
							c0.1,2.2,0.1,4.5,0.1,6.7c-0.3-2.2-0.5-4.4-0.7-6.7c-0.2-2.2-0.3-4.5-0.5-6.7c-0.1-2.2-0.2-4.5-0.3-6.7
							C95.7,436.8,95.7,434.6,95.7,432.4z"/>
					</g>
					<g>
						<path class="st8" d="M130.5,435.7c-0.3-1.6-0.1-3.4,0.5-4.9c0.6-1.6,1.6-3,2.9-4c-0.9,1.4-1.7,2.8-2.2,4.2
							C131.2,432.6,130.8,434.1,130.5,435.7z"/>
					</g>
					<g>
						<path class="st8" d="M119.5,461.3c0.2,1.4,0.3,2.8,0.3,4.2c0,1.4-0.1,2.8-0.3,4.3c-0.2,1.4-0.5,2.8-0.9,4.2
							c-0.4,1.4-0.8,2.7-1.4,4c0.3-1.4,0.6-2.8,0.9-4.1c0.2-1.4,0.5-2.8,0.7-4.1c0.2-1.4,0.3-2.8,0.5-4.2
							C119.4,464.2,119.4,462.8,119.5,461.3z"/>
					</g>
					<g>
						<path class="st8" d="M137.3,468c0.9-1.3,2-2.5,3.1-3.6c1.1-1.1,2.3-2.2,3.6-3.1c-0.9,1.3-2,2.5-3.1,3.6
							C139.7,466,138.6,467.1,137.3,468z"/>
					</g>
					<g>
						<path class="st8" d="M8.7,453c1.8,0.4,3.5,1,5.2,1.8c1.7,0.8,3.3,1.8,4.8,2.9c1.5,1.1,2.9,2.4,4.1,3.8
							c1.2,1.4,2.4,2.9,3.2,4.5c-1.2-1.4-2.4-2.8-3.7-4.1c-1.3-1.3-2.7-2.5-4.1-3.6c-1.5-1.1-3-2.1-4.6-3
							C12.1,454.5,10.4,453.7,8.7,453z"/>
					</g>
					<g>
						<path class="st8" d="M42.8,465.8c0.8,1.8,1.5,3.6,2,5.5c0.6,1.9,1,3.7,1.3,5.7c-0.8-1.8-1.5-3.6-2-5.5
							C43.6,469.7,43.1,467.8,42.8,465.8z"/>
					</g>
					<g>
						<path class="st8" d="M16.3,489.1c1.5-0.1,2.9-0.1,4.4,0.1c1.5,0.1,2.9,0.4,4.3,0.8c1.4,0.4,2.8,0.9,4.1,1.5
							c1.3,0.6,2.6,1.3,3.8,2.2c-1.3-0.6-2.7-1.2-4-1.7c-1.4-0.5-2.7-1-4.1-1.3c-1.4-0.4-2.8-0.7-4.2-1
							C19.2,489.4,17.8,489.2,16.3,489.1z"/>
					</g>
					<g>
						<path class="st8" d="M-14.7,485.5c2.3,0.3,4.5,0.9,6.7,1.5c2.2,0.6,4.4,1.3,6.5,2.2c-2.3-0.3-4.5-0.9-6.7-1.5
							C-10.4,487.1-12.5,486.5-14.7,485.5z"/>
					</g>
					<g>
						<path class="st8" d="M62.8,469.2c0.4,1.5,0.7,2.9,1,4.4c0.3,1.5,0.5,2.9,0.8,4.4c0.2,1.5,0.4,3,0.6,4.4c0.2,1.5,0.3,3,0.4,4.5
							c-0.4-1.5-0.7-2.9-1-4.4c-0.3-1.5-0.5-2.9-0.8-4.4c-0.2-1.5-0.4-3-0.6-4.4C63,472.1,62.9,470.7,62.8,469.2z"/>
					</g>
					<g>
						<path class="st8" d="M86.2,474.7c0.3,2,0.4,4.1,0.4,6.1c0,2-0.1,4.1-0.4,6.1c-0.3-2-0.4-4.1-0.4-6.1
							C85.9,478.8,85.9,476.7,86.2,474.7z"/>
					</g>
					<g>
						<path class="st8" d="M106.3,474.7c0,1.7,0,3.4-0.1,5c0,1.7-0.1,3.3-0.3,5c-0.1,1.7-0.2,3.3-0.4,5c-0.2,1.7-0.4,3.3-0.6,5
							c0-1.7,0-3.4,0.1-5c0-1.7,0.1-3.3,0.3-5c0.1-1.7,0.2-3.3,0.4-5C105.9,478,106,476.4,106.3,474.7z"/>
					</g>
					<g>
						<path class="st8" d="M156,460.2c0.4-2.2,1.6-4.2,3.2-5.7c1.6-1.5,3.6-2.7,5.8-3c-2,0.9-3.8,2.1-5.3,3.6
							C158.2,456.5,157,458.2,156,460.2z"/>
					</g>
					<g>
						<path class="st8" d="M133.9,491.3c1.9-1.4,3.8-2.6,5.9-3.8c2-1.1,4.1-2.2,6.2-3.1c-1.9,1.4-3.8,2.6-5.9,3.8
							C138.1,489.4,136.1,490.5,133.9,491.3z"/>
					</g>
					<g>
						<path class="st8" d="M148.2,496.6c1.3-0.6,2.7-1.1,4.1-1.6c1.4-0.5,2.8-1,4.1-1.4c1.4-0.4,2.8-0.9,4.2-1.3
							c1.4-0.4,2.8-0.8,4.3-1.1c-1.3,0.6-2.7,1.1-4.1,1.6c-1.4,0.5-2.8,1-4.1,1.4c-1.4,0.4-2.8,0.9-4.2,1.3
							C151.1,496,149.7,496.3,148.2,496.6z"/>
					</g>
				</g>
				<path class="st21" d="M123,372.1c-5.7-5.7-9.8,6.8-11.5,13.5c0-3.1-0.1-6-0.3-8.6c1.3-5.3,5.8-25.4-2.9-25.8
					c-8.2-0.4-1.2,18.2,1.6,24.7c0.2,3.5,0.3,7.3,0.3,11.4c-1.6-5.9-7.3-24.8-13.2-19.9c-6.3,5.2,10.2,18.9,13.2,21.3
					c-0.1,4-0.3,8.3-0.7,12.7c-2.3-7.1-9.3-26.6-15.3-20.9c-6.4,6.1,10.8,19.5,15.1,22.6c-0.5,4.8-1.4,9.8-2.6,14.6
					c-1.5-6.6-7-27.8-13.8-22.9c-7.2,5.2,9.6,20.7,13.5,24.1c-1.1,4.3-2.6,8.4-4.4,12.4c-0.8-6.9-3.8-27.7-11.3-24.1
					c-7.8,3.8,7,21.2,10.7,25.4c-0.4,0.8-0.8,1.6-1.2,2.5c-0.2,0.3-0.1,0.7,0.2,1c0,0,0,0,0.1,0.1c0.3,0.3,0.7,0.2,0.9-0.1
					c0.5-0.9,0.9-1.8,1.4-2.8c4.2,0.4,24.6,2.1,20.1-8.3c-4-9.3-15.1,1.7-19.3,6.3c1.7-3.8,3-7.8,4-11.8c3.3-0.7,23.4-5.7,16.8-14.9
					c-5.8-8.2-13.5,6.7-16.2,12.7c1.1-4.5,1.8-9.1,2.4-13.6c2.4-0.9,22.7-8.5,15.2-17.3c-6.9-8.1-13.6,11.2-15.1,16.2
					c0.5-4.7,0.7-9.3,0.8-13.7C115.3,387,129.7,378.8,123,372.1z"/>
				<path class="st13" d="M236.6,447.3c-2.4-10.4-15.7,0.7-22.3,7.1c2.1-3.5,4-6.8,5.7-9.9c5.1-5,24.1-24.5,14.6-31
					c-8.9-6.2-13.9,19.6-15.4,28.9c-2.2,4-4.7,8.5-7.6,13.1c2.3-7.8,9-33-1-31.6c-10.7,1.5-1.7,28.3,0,33.1
					c-2.9,4.5-6.1,9.2-9.6,13.8c2.3-9.5,8-36.3-2.7-34.1c-11.4,2.3-1.4,29.4,1.3,36c-4,5-8.3,10-13.1,14.6
					c2.9-8.5,11.5-36.1,0.4-35.3c-11.6,0.8-3.6,30-1.6,36.5c-4.2,4-8.7,7.7-13.5,10.9c3.9-8.3,14.9-33.8,4.1-35
					c-11.4-1.2-6.9,28.7-5.6,36c-1,0.7-2,1.3-3.1,1.9c-0.4,0.2-0.6,0.8-0.5,1.3c0,0,0,0.1,0,0.1c0.2,0.5,0.6,0.7,1,0.5
					c1.2-0.7,2.3-1.4,3.5-2.2c4.4,3.4,26.2,19.6,28.4,4.7c1.9-13.3-18.1-8.6-26-6.3c4.5-3.1,8.7-6.6,12.7-10.4
					c4.2,1.5,30.2,10,29.2-5.1c-0.9-13.3-19.8-1.9-27,2.9c4.4-4.3,8.4-8.9,12.1-13.6c3.3,0.7,31.4,6.3,29.1-8.8
					c-2.1-14-23,3.1-28.2,7.7c3.8-4.9,7.3-9.9,10.4-14.8C217.5,458.7,239.5,459.5,236.6,447.3z"/>
			</g>
		</g>
		<g class="st17">
			<g>
				<g>
					<path class="st12" d="M660.9-113.6c0,0-37.1,2.3-43.3,111c0,0,6.2,30.3-27.9,62.9c-34,32.6-40.2,139.8,102.1,147.5
						S811,122.5,807.1,102.3s-25.5-59.8-17.8-118C797-74,753.7-132.2,660.9-113.6z"/>
					<g>
						<path class="st22" d="M610.7,66.4c34-32.6,27.9-62.9,27.9-62.9c6.2-108.7,43.3-111,43.3-111c20.4-4.1,38.5-4.5,54.1-2
							c-19.9-8-45.2-10.3-76.1-4.1c0,0-37.1,2.3-43.3,111c0,0,6.2,30.3-27.9,62.9c-31,29.7-38.9,121.3,67.6,143.2
							C573.1,174.3,582,93.9,610.7,66.4z"/>
						<path class="st12" d="M611.3,58c0,0,6.1-7.8-0.1-14.9C611.2,43.1,604.6,51.6,611.3,58z"/>
						<path class="st12" d="M602.6,66.7c0,0,6.1-7.8-0.1-14.9C602.6,51.8,596,60.3,602.6,66.7z"/>
						<path class="st22" d="M637.6,186.1c0,0,9.8-1.5,10.1-10.9C647.7,175.2,637.1,176.9,637.6,186.1z"/>
						<path class="st22" d="M620.6,88.7c0,0-7.6-6.4-14.8-0.4C605.7,88.3,614,95.2,620.6,88.7z"/>
						<path class="st22" d="M655.4,197.5c0,0-4.3-9-13.4-6.5C642.1,191,646.8,200.7,655.4,197.5z"/>
						<g class="st23">
							<path class="st18" d="M616.2,73.9c-1.6-0.1-2.8,1.4-2.8,2.9c0,1.5,1.3,3,2.8,2.9c0.7-0.1,1.3-0.2,1.8-0.7
								c0.4-0.4,0.8-1.1,0.7-1.8c-0.1-1.2-1.1-2.7-2.5-2.5c1.4,0.3,2.1,1,2.2,2.2c0,1.1-0.8,1.8-2.2,2.1c1.3,0.1,2.6-1.2,2.5-2.5
								C618.7,75,617.6,73.9,616.2,73.9L616.2,73.9z"/>
						</g>
						<g class="st23">
							<path class="st18" d="M605.2,97.5c-2.4,7.7-3.6,15.4-3.7,23.1c0,7.7,1.1,15.2,3.6,22.4c2.4,7.1,6.1,13.8,10.9,19.9
								c4.7,6,10.4,11.4,17,16c-7.7-2.4-14.8-7-20.5-12.8c-5.8-5.9-10.3-13.1-13-21.1c-2.7-7.9-3.6-16.4-2.6-24.6
								C597.8,112,600.6,104.1,605.2,97.5z"/>
						</g>
						<g class="st23">
							<path class="st18" d="M650-29.6c-1-8.1-0.8-16.4,0.8-24.6c1.6-8.1,4.7-16.2,9.5-23.2c4.8-7.1,11.5-12.9,19.1-16.5
								c3.8-1.8,7.9-3.1,12.1-3.6c4.2-0.5,8.4-0.4,12.3,0.7c-8.2,0.4-15.7,3-22.2,7c-6.5,4.1-12.1,9.5-16.4,15.7
								c-4.3,6.3-7.5,13.5-9.9,21C653-45.5,651.4-37.6,650-29.6z"/>
						</g>
						<g class="st23">
							<path class="st18" d="M615,108.5c-0.7,3.5-1.2,6.7-1.5,9.8c-0.3,3.1-0.4,6.2-0.3,9.3c0.1,3.1,0.5,6.1,1,9.3
								c0.6,3.1,1.4,6.2,2.3,9.7c-3-2-5.2-5-6.8-8.2c-1.5-3.3-2.4-6.9-2.5-10.5c-0.1-3.6,0.4-7.3,1.7-10.7
								C610.2,113.9,612.2,110.8,615,108.5z"/>
						</g>
						<g class="st23">
							<path class="st18" d="M620.5,69.4c3.5-4.4,6.8-8.6,9.8-13c3-4.4,5.6-9,7.9-13.7c2.3-4.7,4.3-9.6,5.9-14.7
								c1.7-5.1,3-10.3,4.2-15.8c1.2,5.5,1.2,11.2,0.4,16.9c-0.9,5.6-2.6,11.1-5.1,16.2c-2.5,5.1-5.7,9.9-9.6,14
								C630.1,63.4,625.6,67,620.5,69.4z"/>
						</g>
						<path class="st12" d="M591.8,79c-2.3,6.5-4.2,13-5.5,19.5c-1.3,6.5-2,13.1-2.2,19.6c-0.1,6.6,0.3,13.2,1.3,19.7
							c1,6.6,2.6,13.1,4.6,19.7c-4.2-5.5-7.2-11.9-9.2-18.7c-1.9-6.7-2.8-13.8-2.7-20.9c0.2-7.1,1.4-14.1,3.6-20.7
							C584,90.6,587.3,84.3,591.8,79z"/>
						<path class="st12" d="M617.9,44.7c3.6-6.7,5.5-13.8,6.5-21.1c1.1-7.2,1.4-14.6,1.9-22.1c0.5-7.5,1.2-15,2.2-22.5
							c1-7.5,2.2-14.9,3.9-22.4c0.7,7.6,0.8,15.2,0.8,22.7c-0.1,7.5-0.4,15.1-0.9,22.6c-0.5,7.5-1.3,15.2-3.3,22.7
							c-1,3.7-2.4,7.4-4.2,10.9C623,38.9,620.8,42.1,617.9,44.7z"/>
					</g>
				</g>
				<g>
					<polygon class="st13" points="729.9,23.9 698.2,133.4 697.9,111.9 696,-10.5 681.2,-9.3 678.9,190.6 672.1,152.8 673.5,135.3 
						671.6,129.4 669.2,144.6 662.5,118.9 678.3,221.6 678.5,219.2 676.1,437.1 702.3,437.1 698.7,168.7 716.5,91.6 724.1,80.2 
						716.8,81.7 					"/>
					<polygon class="st19" points="729.9,23.9 698.2,133.4 697.9,111.9 696,-10.5 691.8,-10.2 691.8,437.1 702.3,437.1 698.7,168.7 
						716.5,91.6 724.1,80.2 716.8,81.7 					"/>
					<g>
						<path class="st8" d="M690.8,112.7l-0.1-2.6c0-0.4,0-0.9-0.1-1.3l-0.1-1.3c-0.1-1.7-0.3-3.5-0.4-5.1
							c-1.1-13.5-1.7-27.2-2.2-40.9c-0.5-13.7-0.8-27.5-1.1-41.2c-0.2-9.7-0.3-19.5-0.4-29.2c0,0-0.1,0-0.1,0c0,23.5,0.3,47,1,70.5
							c0.1,3.4,0.2,6.9,0.4,10.3c0.1,3.4,0.3,6.9,0.5,10.3l0.3,5.1l0.3,5.1c0.1,1.7,0.2,3.4,0.3,5.1l0.4,5.1
							c0.3,3.4,0.5,6.7,0.7,10.1c0.1,3.4,0.2,6.8,0.3,10.2c0.1,6.8,0.1,13.7,0,20.6c-0.3,27.4-1.4,54.8-2.6,82
							c-0.6,13.6-1.2,27.3-1.9,40.9c-0.7,13.6-1.4,27.2-2.1,40.8c0.9-13.5,1.7-27.1,2.5-40.6c0.8-13.6,1.5-27.2,2.1-40.8
							c0.7-13.6,1.2-27.3,1.7-41c0.5-13.7,0.9-27.4,1.1-41.2c0.1-6.9,0.1-13.8,0-20.7C691,119.7,690.9,116.2,690.8,112.7z"/>
						<path class="st8" d="M691.8,221.7c-0.1,6.7-0.2,13.5-0.4,20.2c-0.2,6.7-0.4,13.4-0.7,20.1c-0.3,6.7-0.6,13.3-1.1,19.9
							c-0.2,3.3-0.5,6.6-0.8,9.9c-0.1,0.8-0.2,1.6-0.2,2.4l-0.3,2.4c-0.2,1.6-0.4,3.2-0.7,4.7c0.3-3.2,0.6-6.5,0.8-9.8
							c0.1-1.6,0.2-3.3,0.3-5c0.1-1.7,0.2-3.3,0.3-5l0.2-5l0.2-5l0.5-10l0.9-20C691.1,235,691.4,228.3,691.8,221.7z"/>
						<path class="st8" d="M693.1,389.9c-0.1-11.6-0.1-23.2,0-34.8c0.1-11.6,0.3-23.2,0.5-34.7c0.3-11.6,0.6-23.1,1.2-34.6l0.4-8.6
							c0.2-2.9,0.4-5.7,0.5-8.6c0.1-1.4,0.2-2.8,0.3-4.2l0.4-4.2c0.1-1.4,0.3-2.8,0.4-4.2l0.5-4.1L697,256c-0.1,1.4-0.3,2.8-0.3,4.2
							l-0.3,4.3c-0.1,1.4-0.2,2.8-0.2,4.3c-0.1,2.9-0.3,5.7-0.4,8.6l-0.3,8.6c-0.2,5.8-0.4,11.5-0.5,17.3
							c-0.2,5.8-0.3,11.5-0.4,17.3c-0.3,11.5-0.5,23.1-0.7,34.6L693.1,389.9z"/>
						<path class="st8" d="M689.6,330.5c-0.3,6.4-0.7,12.8-0.9,19.1c-0.1,3.2-0.2,6.4-0.3,9.5c0,3.2-0.1,6.4,0.1,9.6
							c-0.5-3.1-0.6-6.4-0.7-9.7c0-1.6,0-3.3,0-4.9c0-1.6,0.1-3.3,0.1-4.9c0.1-1.6,0.2-3.2,0.3-4.8c0.1-1.6,0.2-3.2,0.4-4.8
							C688.8,336.6,689.1,333.5,689.6,330.5z"/>
						<path class="st8" d="M698.1,307.2c-0.3,7.3-0.5,14.7-0.7,22c-0.1,3.7-0.2,7.4-0.2,11c-0.1,3.7-0.1,7.4-0.1,11
							c0,7.4,0.1,14.7,0.4,22c0.2,3.7,0.4,7.3,0.7,10.9c0.3,3.6,0.8,7.2,1.4,10.5c-0.8-3.2-1.3-6.7-1.8-10.3c-0.4-3.6-0.7-7.3-1-11
							c-0.4-7.4-0.6-14.9-0.6-22.3c0-7.4,0.2-14.8,0.5-22.2C697,321.7,697.5,314.4,698.1,307.2z"/>
						<path class="st8" d="M694.9,150.1c0.2,7.1,0.3,14.1,0.4,21.2c0.1,7.1,0.1,14.1,0.1,21.2c0,7.1,0,14.1-0.1,21.2
							c-0.1,7-0.2,14.1-0.6,21.1c0-3.5,0-7.1,0-10.6l0-10.6c0-7.1,0-14.1-0.1-21.2C694.6,178.3,694.7,164.2,694.9,150.1z"/>
						<path class="st8" d="M685.1,197.6c0-4.7,0.1-9.5,0.2-14.2c0.1-4.7,0.2-9.4,0.4-14.1c0.2-4.7,0.3-9.4,0.5-14.1
							c0.2-4.7,0.4-9.4,0.6-14.1c0.1,4.7,0.1,9.5,0,14.2c-0.1,4.7-0.2,9.4-0.3,14.2c-0.2,4.7-0.3,9.4-0.6,14.1
							C685.7,188.3,685.4,193,685.1,197.6z"/>
						<path class="st8" d="M684,142.2c0.1-5.7,0.1-11.4,0.2-17.1c0.1-5.7,0.2-11.4,0.2-17.1c0.1-5.7,0.1-11.4,0.1-17.1
							c0-5.7,0-11.4-0.2-17.1c0.5,5.6,0.7,11.4,0.9,17.1c0.1,5.7,0.1,11.5,0.1,17.2c-0.1,5.7-0.2,11.4-0.4,17.1
							C684.6,130.9,684.3,136.6,684,142.2z"/>
						<path class="st8" d="M687.6,109.9c0.2,1.5,0.2,3.1,0.3,4.6c0,1.5,0.1,3,0,4.5c0,1.5-0.1,3-0.1,4.5c-0.1,1.5-0.2,3-0.4,4.5
							c-0.2-1.5-0.2-3.1-0.3-4.6c0-1.5-0.1-3,0-4.5c0-1.5,0.1-3,0.1-4.5C687.3,112.9,687.4,111.4,687.6,109.9z"/>
						<path class="st8" d="M683.7,15.2C683.5,9,683.3,2.8,683-3.4c-0.1-1.8-0.2-3.5-0.3-5.3c-0.2,0-0.3,0-0.5,0
							c0,1.8,0.1,3.6,0.1,5.4l0.6,18.6l0.3,9.3l0.1,4.7l0.1,4.7c0,1.6,0.1,3.1,0.1,4.7c0,1.6,0.1,3.1,0.1,4.7c0.1,3.1,0.1,6.2,0,9.3
							c0.1-1.5,0.2-3.1,0.3-4.6l0.1-2.3c0-0.8,0-1.6,0.1-2.3c0.1-3.1,0.1-6.2,0-9.4C684.1,27.7,683.9,21.5,683.7,15.2z"/>
						<path class="st8" d="M698.6,162.2c0.2-2.8,0.5-5.4,0.8-8.1c0.3-2.6,0.7-5.2,1.1-7.8c0.4-2.5,0.9-5,1.4-7.5
							c0.5-2.4,1.1-4.8,1.8-6.9c-0.4,2.6-0.8,5.1-1.3,7.7l-1.3,7.6c-0.4,2.5-0.9,5-1.3,7.6C699.6,157.2,699.1,159.7,698.6,162.2z"/>
						<path class="st8" d="M701.8,131.9c0.2-1.8,0.5-3.4,0.7-5.1c0.3-1.6,0.6-3.3,0.9-4.8c0.3-1.6,0.6-3.2,1-4.7
							c0.3-1.5,0.7-3.1,1.1-4.6c-0.1,1.8-0.3,3.6-0.6,5.2c-0.2,1.7-0.5,3.3-0.8,4.9c-0.3,1.6-0.7,3.2-1.1,4.7
							C702.8,129.1,702.3,130.6,701.8,131.9z"/>
						<path class="st8" d="M675.7,180.6c0.7,3.1,1.3,6.3,1.8,9.5c0.6,3.2,1.1,6.5,1.6,9.7c0.5,3.3,1,6.6,1.4,9.9
							c0.5,3.3,0.9,6.7,1.2,10.1c-0.7-3.1-1.3-6.3-1.8-9.5c-0.6-3.2-1.1-6.5-1.6-9.7c-0.5-3.3-1-6.6-1.4-9.9
							C676.4,187.3,676,184,675.7,180.6z"/>
					</g>
				</g>
			</g>
			<g>
				<path class="st13" d="M657.6,359.2c-4.1-1.7-3.5,5.4-3,9.2c-0.6-1.5-1.3-3-1.9-4.3c-0.4-2.9-2.3-14-6.8-12.4
					c-4.2,1.5,3.1,9.4,5.9,12.1c0.8,1.7,1.7,3.6,2.5,5.7c-2-2.6-8.8-11-10.7-7.3c-2.1,3.9,9,7.4,11,8c0.8,2,1.6,4.2,2.3,6.5
					c-2.6-3.1-10.1-11.4-12-7.3c-2,4.4,9.4,7.6,12.3,8.3c0.7,2.5,1.3,5.2,1.7,7.9c-2.1-3-9.2-12.5-11.6-8.7
					c-2.5,4.1,9.1,8.4,11.7,9.4c0.3,2.4,0.4,4.8,0.4,7.2c-1.8-3.3-7.6-13.2-10.6-9.8c-3.1,3.5,7.9,9.2,10.6,10.6
					c0,0.5-0.1,1-0.1,1.5c0,0.2,0.1,0.4,0.3,0.5c0,0,0,0,0,0c0.2,0.1,0.4,0,0.4-0.2c0.1-0.6,0.1-1.1,0.1-1.7
					c2.2-0.6,12.8-4.1,8.4-8.4c-3.9-3.9-7.2,4-8.4,7.2c0-2.3-0.1-4.5-0.4-6.8c1.5-1,10.6-7.7,5.4-11c-4.6-2.9-5.4,6.2-5.5,9.8
					c-0.4-2.5-0.9-5-1.6-7.3c1-0.9,9.7-9,4.1-11.9c-5.2-2.7-4.5,8.5-4.3,11.3c-0.7-2.5-1.5-4.8-2.4-7
					C656.8,368.3,662.4,361.2,657.6,359.2z"/>
				<path class="st13" d="M627.9,380.2c-4.2,1.4,0.8,6.4,3.7,8.9c-1.5-0.7-2.9-1.4-4.2-2c-2.2-1.9-10.8-9.1-13.2-5
					c-2.2,3.9,8.5,5.1,12.3,5.4c1.7,0.8,3.6,1.6,5.6,2.7c-3.3-0.7-13.8-2.6-12.9,1.5c1,4.4,11.6-0.3,13.5-1.1c1.9,1,3.9,2.2,5.9,3.5
					c-4-0.6-15.1-2.1-13.9,2.3c1.3,4.6,12.1-0.4,14.7-1.7c2.2,1.5,4.4,3.1,6.4,4.9c-3.6-0.9-15.1-3.5-14.4,1
					c0.7,4.8,12.4,0.5,15-0.6c1.8,1.6,3.4,3.3,4.9,5.2c-3.5-1.3-14.3-5-14.4-0.5c-0.1,4.7,12,1.9,14.9,1.1c0.3,0.4,0.6,0.8,0.9,1.2
					c0.1,0.2,0.3,0.2,0.5,0.2c0,0,0,0,0,0c0.2-0.1,0.3-0.3,0.2-0.4c-0.3-0.5-0.7-0.9-1-1.4c1.2-1.9,7.1-11.5,1-11.9
					c-5.5-0.4-2.9,7.8-1.7,10.9c-1.4-1.7-3-3.4-4.7-4.9c0.5-1.8,3.1-12.8-3.1-11.9c-5.4,0.8-0.1,8.2,2.1,11c-1.9-1.6-3.9-3.1-6-4.5
					c0.2-1.4,1.5-13.2-4.6-11.7c-5.7,1.4,2.1,9.4,4.1,11.4c-2.1-1.4-4.3-2.7-6.4-3.8C633.2,387.7,632.8,378.6,627.9,380.2z"/>
				<g>
					<path class="st24" d="M653.4,423c-7.2-4.4-12.5-9.5-12.3-14.8c0.3-7,9.4-4.6,19.6,1.5c-4.9-6.9-7.8-13.7-5.5-18.5
						c3-6.2,10.2-0.6,17.1,8.7c-1.8-7.6-1.9-14.3,1.7-17.8c5.3-5.1,10.4,4,13.5,16.3c1.5-8.1,4.2-14.7,9-16.4
						c6.5-2.3,7.7,6.8,5.9,18.3c7.2-10.2,15.1-16.7,18.2-10.2c2.3,4.8-0.6,11.6-5.5,18.5c10.2-6,19.3-8.5,19.6-1.5
						c0.2,5.6-5.7,10.9-13.5,15.5c12.9-2.2,23.8-1.2,21.2,5.8c-4.9,13-44.9,10.2-54.3,9.4c0,0.1,0.1,0.1,0.1,0.2
						c0,0-49.7,5.6-55.1-9.1C630.6,422,640.9,421,653.4,423z"/>
					<g class="st20">
						<path class="st18" d="M677.5,390c-3.6,3.5-3.5,10.2-1.7,17.8c-6.9-9.4-14.2-15-17.1-8.7c-1,2.2-1,4.7-0.2,7.5
							c-3.5-5.8-5.3-11.3-3.4-15.3c3-6.2,10.2-0.6,17.1,8.7c-1.8-7.6-1.9-14.3,1.7-17.8c4.3-4.2,8.6,1.3,11.7,10.2
							C683.1,388.6,680.4,387.3,677.5,390z"/>
						<path class="st18" d="M664.2,417.5c-10.2-6-19.3-8.5-19.6-1.5c0,0.1,0,0.1,0,0.2c-2.3-2.6-3.7-5.2-3.6-8
							c0.3-6.7,8.7-4.7,18.3,0.8C660.5,411.7,662.2,414.6,664.2,417.5z"/>
						<path class="st18" d="M646.8,422.2c2.2,3,5.8,5.9,10.2,8.6c-10-1.6-18.6-1.3-20.3,2.4c-1.7-1.2-2.9-2.7-3.6-4.4
							C631,423.3,637.6,421.5,646.8,422.2z"/>
					</g>
					<g>
						<path class="st8" d="M710.9,402.5c-0.6,0.8-1.2,1.7-1.7,2.5c-0.5,0.9-1,1.8-1.4,2.7c0.6-0.8,1.2-1.7,1.7-2.5
							C710.1,404.4,710.5,403.5,710.9,402.5z"/>
					</g>
					<g>
						<path class="st8" d="M702.7,407.2c-0.5,1-0.8,2-1.1,3.1c-0.3,1-0.6,2.1-0.8,3.2c0.5-1,0.8-2,1.1-3.1
							C702.2,409.4,702.5,408.3,702.7,407.2z"/>
					</g>
					<g>
						<path class="st8" d="M697.5,389.6c-0.3,0.7-0.5,1.5-0.7,2.3c-0.2,0.8-0.3,1.6-0.4,2.4c0.3-0.7,0.5-1.5,0.7-2.3
							C697.4,391.2,697.5,390.4,697.5,389.6z"/>
					</g>
					<g>
						<path class="st8" d="M694,404.7c-0.4,0.6-0.6,1.3-0.9,1.9c-0.2,0.7-0.4,1.4-0.6,2.1c-0.1,0.7-0.3,1.4-0.3,2.1
							c0,0.7-0.1,1.4,0,2.1c0.1-0.7,0.1-1.4,0.3-2.1c0.1-0.7,0.2-1.4,0.4-2.1c0.1-0.7,0.3-1.4,0.5-2.1
							C693.6,406.1,693.8,405.4,694,404.7z"/>
					</g>
					<g>
						<path class="st8" d="M679.9,390.1c-0.2,0.9-0.3,1.8-0.2,2.6c0.1,0.9,0.3,1.8,0.7,2.6c-0.1-0.9-0.3-1.7-0.3-2.6
							C680,391.8,679.9,391,679.9,390.1z"/>
					</g>
					<g>
						<path class="st8" d="M682.7,403.6c-0.1,1-0.2,2.1-0.3,3.1c-0.1,1-0.1,2.1-0.2,3.1c0,1-0.1,2.1-0.1,3.1c0,1-0.1,2.1,0,3.1
							c0.1-1,0.2-2.1,0.3-3.1c0.1-1,0.1-2.1,0.2-3.1c0-1,0.1-2.1,0.1-3.1C682.7,405.7,682.7,404.6,682.7,403.6z"/>
					</g>
					<g>
						<path class="st8" d="M666.5,405.2c0.2-0.8,0-1.6-0.2-2.3c-0.3-0.7-0.7-1.4-1.4-1.8c0.4,0.6,0.8,1.3,1,2
							C666.2,403.7,666.3,404.4,666.5,405.2z"/>
					</g>
					<g>
						<path class="st8" d="M671.6,417.1c-0.1,0.7-0.1,1.3-0.1,2c0,0.7,0.1,1.3,0.1,2c0.1,0.7,0.2,1.3,0.4,2c0.2,0.6,0.4,1.3,0.7,1.9
							c-0.1-0.6-0.3-1.3-0.4-1.9c-0.1-0.6-0.2-1.3-0.3-1.9c-0.1-0.6-0.2-1.3-0.2-2C671.7,418.5,671.6,417.8,671.6,417.1z"/>
					</g>
					<g>
						<path class="st8" d="M663.3,420.3c-0.4-0.6-0.9-1.2-1.4-1.7c-0.5-0.5-1.1-1-1.7-1.4c0.4,0.6,0.9,1.2,1.4,1.7
							C662.2,419.3,662.7,419.8,663.3,420.3z"/>
					</g>
					<g>
						<path class="st8" d="M723.4,413.2c-0.8,0.2-1.7,0.5-2.4,0.9c-0.8,0.4-1.5,0.8-2.2,1.3c-0.7,0.5-1.3,1.1-1.9,1.8
							c-0.6,0.6-1.1,1.3-1.5,2.1c0.5-0.7,1.1-1.3,1.7-1.9c0.6-0.6,1.3-1.2,1.9-1.7c0.7-0.5,1.4-1,2.1-1.4
							C721.8,413.9,722.6,413.6,723.4,413.2z"/>
					</g>
					<g>
						<path class="st8" d="M707.4,419.2c-0.4,0.8-0.7,1.7-1,2.5c-0.3,0.9-0.5,1.7-0.6,2.7c0.4-0.8,0.7-1.7,1-2.5
							C707.1,421,707.3,420.2,707.4,419.2z"/>
					</g>
					<g>
						<path class="st8" d="M719.8,430.1c-0.7-0.1-1.4,0-2,0c-0.7,0.1-1.4,0.2-2,0.4c-0.7,0.2-1.3,0.4-1.9,0.7
							c-0.6,0.3-1.2,0.6-1.8,1c0.6-0.3,1.2-0.5,1.9-0.8c0.6-0.2,1.3-0.4,1.9-0.6c0.6-0.2,1.3-0.3,2-0.5
							C718.5,430.3,719.1,430.2,719.8,430.1z"/>
					</g>
					<g>
						<path class="st8" d="M734.3,428.4c-1.1,0.2-2.1,0.4-3.1,0.7c-1,0.3-2,0.6-3,1c1.1-0.2,2.1-0.4,3.1-0.7
							C732.3,429.2,733.3,428.9,734.3,428.4z"/>
					</g>
					<g>
						<path class="st8" d="M698.1,420.8c-0.2,0.7-0.3,1.4-0.5,2.1c-0.1,0.7-0.2,1.4-0.4,2.1c-0.1,0.7-0.2,1.4-0.3,2.1
							c-0.1,0.7-0.2,1.4-0.2,2.1c0.2-0.7,0.3-1.4,0.5-2.1c0.1-0.7,0.2-1.4,0.4-2.1c0.1-0.7,0.2-1.4,0.3-2.1
							C698,422.2,698.1,421.5,698.1,420.8z"/>
					</g>
					<g>
						<path class="st8" d="M687.2,423.4c-0.1,1-0.2,1.9-0.2,2.9c0,1,0,1.9,0.2,2.9c0.1-1,0.2-1.9,0.2-2.9
							C687.3,425.3,687.3,424.3,687.2,423.4z"/>
					</g>
					<g>
						<path class="st8" d="M677.8,423.4c0,0.8,0,1.6,0,2.3c0,0.8,0.1,1.6,0.1,2.3c0.1,0.8,0.1,1.6,0.2,2.3c0.1,0.8,0.2,1.6,0.3,2.3
							c0-0.8,0-1.6,0-2.3c0-0.8-0.1-1.6-0.1-2.3c-0.1-0.8-0.1-1.6-0.2-2.3C678,424.9,677.9,424.2,677.8,423.4z"/>
					</g>
					<g>
						<path class="st8" d="M654.6,416.6c-0.2-1-0.8-1.9-1.5-2.7c-0.7-0.7-1.7-1.3-2.7-1.4c0.9,0.4,1.8,1,2.5,1.7
							C653.5,414.9,654.1,415.7,654.6,416.6z"/>
					</g>
					<g>
						<path class="st8" d="M664.9,431.2c-0.9-0.7-1.8-1.2-2.7-1.8c-0.9-0.5-1.9-1-2.9-1.5c0.9,0.7,1.8,1.2,2.7,1.8
							C662.9,430.2,663.9,430.7,664.9,431.2z"/>
					</g>
					<g>
						<path class="st8" d="M658.2,433.6c-0.6-0.3-1.3-0.5-1.9-0.8c-0.6-0.2-1.3-0.5-1.9-0.7c-0.7-0.2-1.3-0.4-2-0.6
							c-0.7-0.2-1.3-0.4-2-0.5c0.6,0.3,1.3,0.5,1.9,0.8c0.6,0.2,1.3,0.5,1.9,0.7c0.7,0.2,1.3,0.4,2,0.6
							C656.8,433.3,657.5,433.5,658.2,433.6z"/>
					</g>
				</g>
				<g>
					<path class="st13" d="M701.9,430.1c-4.8-2.9-8.3-6.3-8.2-9.8c0.2-4.7,6.3-3,13,1c-3.2-4.6-5.2-9.1-3.7-12.3
						c2-4.2,6.8-0.4,11.4,5.8c-1.2-5.1-1.3-9.5,1.1-11.9c3.5-3.4,6.9,2.7,9,10.9c1-5.4,2.8-9.8,6-10.9c4.3-1.5,5.1,4.5,4,12.2
						c4.8-6.8,10-11.2,12.1-6.8c1.5,3.2-0.4,7.7-3.7,12.3c6.8-4,12.9-5.6,13-1c0.1,3.7-3.8,7.3-9,10.3c8.6-1.4,15.9-0.8,14.2,3.8
						c-3.3,8.7-29.9,6.8-36.2,6.2c0,0,0.1,0.1,0.1,0.1c0,0-33.1,3.8-36.7-6.1C686.7,429.4,693.6,428.7,701.9,430.1z"/>
					<g class="st20">
						<path class="st18" d="M718,408.1c-2.4,2.3-2.3,6.8-1.1,11.9c-4.6-6.2-9.4-10-11.4-5.8c-0.7,1.4-0.7,3.1-0.1,5
							c-2.4-3.8-3.6-7.5-2.3-10.2c2-4.2,6.8-0.4,11.4,5.8c-1.2-5.1-1.3-9.5,1.1-11.9c2.9-2.8,5.7,0.8,7.8,6.8
							C721.8,407.2,719.9,406.3,718,408.1z"/>
						<path class="st18" d="M709.2,426.4c-6.8-4-12.9-5.6-13-1c0,0,0,0.1,0,0.1c-1.6-1.7-2.5-3.5-2.4-5.3c0.2-4.5,5.8-3.2,12.2,0.5
							C706.7,422.6,707.8,424.5,709.2,426.4z"/>
						<path class="st18" d="M697.6,429.6c1.5,2,3.9,4,6.8,5.7c-6.6-1.1-12.4-0.9-13.6,1.6c-1.1-0.8-2-1.8-2.4-2.9
							C687,430.3,691.4,429.1,697.6,429.6z"/>
					</g>
					<g>
						<path class="st8" d="M740.3,416.4c-0.4,0.5-0.8,1.1-1.1,1.7c-0.3,0.6-0.6,1.2-0.9,1.8c0.4-0.5,0.8-1.1,1.1-1.7
							C739.7,417.7,740,417.1,740.3,416.4z"/>
					</g>
					<g>
						<path class="st8" d="M734.8,419.6c-0.3,0.7-0.5,1.4-0.8,2.1c-0.2,0.7-0.4,1.4-0.5,2.1c0.3-0.7,0.5-1.4,0.8-2.1
							C734.5,421,734.7,420.3,734.8,419.6z"/>
					</g>
					<g>
						<path class="st8" d="M731.4,407.8c-0.2,0.5-0.3,1-0.5,1.5c-0.1,0.5-0.2,1-0.2,1.6c0.2-0.5,0.3-1,0.5-1.5
							C731.2,408.9,731.3,408.3,731.4,407.8z"/>
					</g>
					<g>
						<path class="st8" d="M729,417.9c-0.2,0.4-0.4,0.9-0.6,1.3c-0.2,0.4-0.3,0.9-0.4,1.4c-0.1,0.5-0.2,0.9-0.2,1.4c0,0.5,0,1,0,1.4
							c0.1-0.5,0.1-0.9,0.2-1.4c0.1-0.5,0.1-0.9,0.2-1.4c0.1-0.5,0.2-0.9,0.3-1.4C728.7,418.8,728.9,418.3,729,417.9z"/>
					</g>
					<g>
						<path class="st8" d="M719.6,408.1c-0.2,0.6-0.2,1.2-0.1,1.8c0.1,0.6,0.2,1.2,0.5,1.7c-0.1-0.6-0.2-1.2-0.2-1.7
							C719.6,409.3,719.6,408.7,719.6,408.1z"/>
					</g>
					<g>
						<path class="st8" d="M721.5,417.1c-0.1,0.7-0.1,1.4-0.2,2.1c-0.1,0.7-0.1,1.4-0.1,2.1c0,0.7-0.1,1.4-0.1,2.1
							c0,0.7,0,1.4,0,2.1c0.1-0.7,0.1-1.4,0.2-2.1c0.1-0.7,0.1-1.4,0.1-2.1c0-0.7,0.1-1.4,0.1-2.1
							C721.5,418.5,721.5,417.8,721.5,417.1z"/>
					</g>
					<g>
						<path class="st8" d="M710.6,418.2c0.1-0.5,0-1-0.2-1.5c-0.2-0.5-0.5-0.9-0.9-1.2c0.3,0.4,0.5,0.9,0.7,1.3
							C710.4,417.2,710.6,417.7,710.6,418.2z"/>
					</g>
					<g>
						<path class="st8" d="M714.1,426.2c-0.1,0.4-0.1,0.9-0.1,1.3c0,0.4,0,0.9,0.1,1.3c0.1,0.4,0.1,0.9,0.3,1.3
							c0.1,0.4,0.3,0.8,0.4,1.2c-0.1-0.4-0.2-0.9-0.3-1.3c-0.1-0.4-0.2-0.9-0.2-1.3c-0.1-0.4-0.1-0.9-0.2-1.3
							C714.1,427.1,714.1,426.6,714.1,426.2z"/>
					</g>
					<g>
						<path class="st8" d="M708.5,428.3c-0.3-0.4-0.6-0.8-1-1.1c-0.3-0.3-0.7-0.7-1.1-1c0.3,0.4,0.6,0.8,1,1.1
							C707.8,427.6,708.1,428,708.5,428.3z"/>
					</g>
					<g>
						<path class="st8" d="M748.6,423.6c-0.6,0.1-1.1,0.3-1.6,0.6c-0.5,0.2-1,0.6-1.5,0.9c-0.5,0.3-0.9,0.7-1.3,1.2
							c-0.4,0.4-0.7,0.9-1,1.4c0.4-0.4,0.7-0.9,1.1-1.3c0.4-0.4,0.8-0.8,1.3-1.1c0.5-0.3,0.9-0.6,1.4-0.9
							C747.5,424,748.1,423.8,748.6,423.6z"/>
					</g>
					<g>
						<path class="st8" d="M738,427.6c-0.3,0.6-0.5,1.1-0.6,1.7c-0.2,0.6-0.3,1.2-0.4,1.8c0.3-0.6,0.5-1.1,0.6-1.7
							C737.7,428.8,737.9,428.2,738,427.6z"/>
					</g>
					<g>
						<path class="st8" d="M746.2,434.8c-0.5,0-0.9,0-1.4,0c-0.5,0-0.9,0.1-1.3,0.3c-0.4,0.1-0.9,0.3-1.3,0.5
							c-0.4,0.2-0.8,0.4-1.2,0.7c0.4-0.2,0.8-0.4,1.2-0.5c0.4-0.2,0.8-0.3,1.3-0.4c0.4-0.1,0.9-0.2,1.3-0.3
							C745.3,434.9,745.8,434.9,746.2,434.8z"/>
					</g>
					<g>
						<path class="st8" d="M755.9,433.7c-0.7,0.1-1.4,0.3-2.1,0.5c-0.7,0.2-1.4,0.4-2,0.7c0.7-0.1,1.4-0.3,2.1-0.5
							C754.5,434.2,755.2,434,755.9,433.7z"/>
					</g>
					<g>
						<path class="st8" d="M731.7,428.6c-0.1,0.5-0.2,0.9-0.3,1.4c-0.1,0.5-0.2,0.9-0.2,1.4c-0.1,0.5-0.1,0.9-0.2,1.4
							c-0.1,0.5-0.1,0.9-0.1,1.4c0.1-0.5,0.2-0.9,0.3-1.4c0.1-0.5,0.2-0.9,0.2-1.4c0.1-0.5,0.1-0.9,0.2-1.4
							C731.7,429.5,731.7,429.1,731.7,428.6z"/>
					</g>
					<g>
						<path class="st8" d="M724.4,430.3c-0.1,0.6-0.1,1.3-0.1,1.9c0,0.6,0,1.3,0.1,1.9c0.1-0.6,0.1-1.3,0.1-1.9
							C724.6,431.6,724.5,431,724.4,430.3z"/>
					</g>
					<g>
						<path class="st8" d="M718.2,430.3c0,0.5,0,1,0,1.6c0,0.5,0,1,0.1,1.6c0,0.5,0.1,1,0.1,1.6c0.1,0.5,0.1,1,0.2,1.6
							c0-0.5,0-1,0-1.6c0-0.5,0-1-0.1-1.6c0-0.5-0.1-1-0.1-1.6C718.3,431.4,718.3,430.9,718.2,430.3z"/>
					</g>
					<g>
						<path class="st8" d="M702.7,425.8c-0.1-0.7-0.5-1.3-1-1.8c-0.5-0.5-1.1-0.8-1.8-0.9c0.6,0.3,1.2,0.7,1.6,1.1
							C702,424.7,702.4,425.2,702.7,425.8z"/>
					</g>
					<g>
						<path class="st8" d="M709.6,435.5c-0.6-0.4-1.2-0.8-1.8-1.2c-0.6-0.4-1.3-0.7-1.9-1c0.6,0.4,1.2,0.8,1.8,1.2
							C708.3,434.9,708.9,435.3,709.6,435.5z"/>
					</g>
					<g>
						<path class="st8" d="M705.1,437.2c-0.4-0.2-0.8-0.3-1.3-0.5c-0.4-0.2-0.9-0.3-1.3-0.4c-0.4-0.1-0.9-0.3-1.3-0.4
							c-0.4-0.1-0.9-0.2-1.3-0.3c0.4,0.2,0.8,0.3,1.3,0.5c0.4,0.2,0.9,0.3,1.3,0.4c0.4,0.1,0.9,0.3,1.3,0.4
							C704.2,437,704.7,437.1,705.1,437.2z"/>
					</g>
				</g>
			</g>
		</g>
	</g>
</g>
</svg>
