<?xml version="1.0" encoding="utf-8"?>
<!-- Generator: Adobe Illustrator 23.0.3, SVG Export Plug-In . SVG Version: 6.00 Build 0)  -->
<svg version="1.1" id="Layer_1" xmlns="http://www.w3.org/2000/svg" xmlns:xlink="http://www.w3.org/1999/xlink" x="0px" y="0px"
	 viewBox="0 0 792 612" style="enable-background:new 0 0 792 612;" xml:space="preserve">
<style type="text/css">
	.st0{fill:#9385BF;}
	.st1{fill:#A796C8;}
	.st2{fill:#A690C4;}
	.st3{fill:#B89ECB;}
	.st4{fill:#D3B6D7;}
	.st5{fill:#FFFFFF;}
	.st6{opacity:0.7;}
</style>
<rect class="st0" width="792" height="612"/>
<path class="st1" d="M792,229.8l-132,0c-9.2-4.9-3.9-21.3,17.2-18.1c-0.7-16.1,6.7-26,22.8-29.2c1.1-11.6,6.7-17.2,17.2-16.4
	c0-24,34.4-34.4,46.7-10c9.7-6.1,19.1-4.6,28.1,3.6V229.8z"/>
<path class="st2" d="M0,391.8L0,612h792V412.4c-11.6,0.9-16.1,6-17.1,13.1c-17.2-10.4-34.8-12.7-52.6-7.5
	c-6.3-14-22.2-18.8-43.4-18.7c-32.7-27-62-28.2-88-2.8c-17.2-4.9-30.6-1.8-40.7,8.4c-37.9-17.7-62.4-11.6-80.1,6.5
	c-16.7-3.6-29.9-0.3-40.7,7.5c-28.4-14.1-49-8.9-65.7,5.6c-25.3-20.3-53-24.8-84.1-6.5c-23.4-14.4-48.1-18.7-74.9-8.4
	c-34.6-6.9-59.2-3.3-73.6,11.2c-13.7-11.1-30.4-17.7-52.6-15.9C53.5,382.6,27.2,379.5,0,391.8z"/>
<path class="st3" d="M0,442.9L0,612h792V452.8c-31-13.6-54.4-9.5-73.4,4.9c-10.6-10.8-24.9-15-41.7-14.8c-12.9-28.7-41-33.7-81-19.8
	c-38.4-11.2-61.4,2.1-76.4,28c-14.5,5.4-19.5,11.8-16.2,18.9c-13.1-8-28.2-8.5-44-6.5c-7.2-16.1-23.7-26.3-52.1-28.8
	c-39.2-27.6-70-25.8-92.6,4.9c-25-2.9-37.8,5.1-44,19c-20.6-6.2-36.2-3.4-48.6,4.9c-15.6-16.5-37.5-21.7-64.8-17.3
	c-43.8-24.1-78.9-18.8-107.6,8.2C35,439.4,18.1,437.8,0,442.9z"/>
<path class="st4" d="M0,612l0-142.8c26.9-3.1,47,3.3,58.3,22c18.6-3.4,35.6,3.6,51.5,17.4c15.4-20.5,40.7-24.3,75.9-11
	c25-12.8,49.1-12.4,72,5.5c2.9-5.8,8.3-8.5,16.7-7.3c-4-32,62-49.9,93.9-17.4c29.9-10,55.1-5.9,74.6,14.7
	c13.5,0.3,22.1,4.9,25.7,13.7c15.2-12.8,31.9-14.6,50.2-6.4c2.7-7.7,8.6-12.5,18-13.7c-5.2-30.1,38.4-44.7,65.6-25.7
	c29.6-2.7,46.8,7.3,56.6,24.7c21.1-3.7,36.1,1.8,45,16.5c20-4.6,37.7-3.3,51.5,8.2c6.5-11.1,18.3-17.5,36.5-18.3V612H0z"/>
<path class="st1" d="M0,142.3l132,0c9.2-4.9,3.9-21.3-17.2-18.1c0.7-16.1-6.7-26-22.8-29.2c-1.1-11.6-6.7-17.2-17.2-16.4
	c0-24-34.4-34.4-46.7-10C18.4,62.5,9,64,0,72.2L0,142.3z"/>
<g>
	<circle class="st5" cx="175.3" cy="602.2" r="3.6"/>
	<circle class="st5" cx="282.3" cy="526.2" r="3.6"/>
	<circle class="st5" cx="418.7" cy="569.3" r="3.6"/>
	<circle class="st5" cx="357.6" cy="484" r="3.6"/>
	<circle class="st5" cx="164.7" cy="451.7" r="3.6"/>
	<circle class="st5" cx="262.8" cy="390.7" r="3.6"/>
	<circle class="st5" cx="369.6" cy="359.2" r="3.6"/>
	<circle class="st5" cx="328.3" cy="450.2" r="3.6"/>
	<circle class="st5" cx="231.4" cy="508.3" r="3.6"/>
	<circle class="st5" cx="213.3" cy="469.2" r="3.6"/>
	<circle class="st5" cx="83.5" cy="472.7" r="3.6"/>
	<circle class="st5" cx="83.5" cy="582.6" r="3.6"/>
	<circle class="st5" cx="9.8" cy="526.2" r="3.6"/>
</g>
<g class="st6">
	<circle class="st5" cx="539.1" cy="602.4" r="3.6"/>
	<circle class="st5" cx="646.1" cy="526.4" r="3.6"/>
	<circle class="st5" cx="782.5" cy="569.6" r="3.6"/>
	<circle class="st5" cx="721.5" cy="484.2" r="3.6"/>
	<circle class="st5" cx="528.5" cy="452" r="3.6"/>
	<circle class="st5" cx="626.6" cy="390.9" r="3.6"/>
	<circle class="st5" cx="733.4" cy="359.4" r="3.6"/>
	<circle class="st5" cx="692.1" cy="450.4" r="3.6"/>
	<circle class="st5" cx="595.3" cy="508.5" r="3.6"/>
	<circle class="st5" cx="577.1" cy="469.4" r="3.6"/>
	<circle class="st5" cx="447.3" cy="473" r="3.6"/>
	<circle class="st5" cx="447.3" cy="582.8" r="3.6"/>
	<circle class="st5" cx="373.6" cy="526.4" r="3.6"/>
</g>
</svg>
