<svg id="Layer_1" data-name="Layer 1" xmlns="http://www.w3.org/2000/svg" viewBox="0 0 104.26 90.17"><defs><style>.cls-1,.cls-6,.cls-7{fill:none;stroke-linecap:round;stroke-linejoin:round;}.cls-1{stroke:#853b1c;}.cls-1,.cls-7{stroke-width:0.92px;}.cls-2{fill:#a25c39;}.cls-3{fill:#ffd652;}.cls-4{fill:#f6f3a8;opacity:0.36;}.cls-5{fill:#3a1410;opacity:0.17;}.cls-6,.cls-7{stroke:#823b1c;}.cls-6{stroke-width:1.19px;}.cls-8{opacity:0.6;}.cls-9{fill:#f177aa;}.cls-10{fill:#c7dadb;opacity:0.63;}.cls-11{fill:#006958;opacity:0.12;}.cls-12{fill:#fff;opacity:0.54;}.cls-13{fill:#853b1c;}</style></defs><title>bee</title><path class="cls-1" d="M53.4,84.06s.39,3.79,1.26,4.65,3.93,1,3.93,1"/><path class="cls-1" d="M8.84,68.94s-1.27,4-1,5.65,3.31,3.21,3.31,3.21"/><path class="cls-2" d="M87.62,59.31c.15.46,15.27,4.13,16.5,5s-5.66,1.07-15.89,1.22S87.62,59.31,87.62,59.31Z"/><path class="cls-3" d="M85.79,75.2c-2.05,3.71-6.12,6.49-11.33,8.39a56.36,56.36,0,0,1-16.33,3,75.58,75.58,0,0,1-21-2q-.82-.19-1.62-.42A92.7,92.7,0,0,1,23,80h0A46.41,46.41,0,0,1,7.81,70.09q-.48-.48-.93-1a26.92,26.92,0,0,1-5.63-9.72A28.51,28.51,0,0,1,.38,56a25.19,25.19,0,0,1-.33-2.63C-1,38.77,12.77,29.24,22.81,31.16a11.17,11.17,0,0,1,1.41.35c5.13,1.61,8.55,4.55,12.25,6.77A20,20,0,0,0,43,41c3.66.71,8.22-.2,13.39-.83,4.81-.58,10.14-.92,15.76.52h0a26.31,26.31,0,0,1,2.92.9,19.55,19.55,0,0,1,10.1,8.7v0C89.54,57.72,89.88,67.81,85.79,75.2Z"/><path class="cls-4" d="M22.81,35.09c2.05-.36,3.86.13,4.22,2.5.25,1.62-1,3.1-2.24,4.13a17.6,17.6,0,0,1-4.73,2.74,4.33,4.33,0,0,1-3.46.2,3.08,3.08,0,0,1-1.53-2.93,5.8,5.8,0,0,1,1.35-3.18A12.63,12.63,0,0,1,22.81,35.09Z"/><path class="cls-4" d="M6.43,46.35A32,32,0,0,0,6.88,69.1a26.92,26.92,0,0,1-5.63-9.72A28.51,28.51,0,0,1,.38,56a25.19,25.19,0,0,1-.33-2.63C-1,38.77,12.77,29.24,22.81,31.16,15.59,33.78,9.54,38.31,6.43,46.35Z"/><path class="cls-2" d="M59.82,58.79C58,70.48,48.51,83.61,37.14,84.62c-.54-.12-1.08-.26-1.61-.41A92.7,92.7,0,0,1,23,80c3.92,1,8.12.41,16.8-11.78S47.29,44,43,41c3.66.71,8.22-.2,13.39-.83C59.9,44.07,61.08,50.8,59.82,58.79Z"/><path class="cls-2" d="M74.46,83.59a56.36,56.36,0,0,1-16.33,3c20.77-12.41,21.22-39.94,14-45.9a28.72,28.72,0,0,1,2.92.91,19.55,19.55,0,0,1,10.1,8.7v0C88.57,59.3,89.44,73.66,74.46,83.59Z"/><path class="cls-5" d="M85.79,75.2c-2.05,3.71-6.12,6.49-11.33,8.39a56.36,56.36,0,0,1-16.33,3,75.58,75.58,0,0,1-21-2q-.82-.19-1.62-.42A92.7,92.7,0,0,1,23,80h0A46.41,46.41,0,0,1,7.81,70.09a68.69,68.69,0,0,0,43.61,9c4.58-.6,9.37-1.82,12.55-5.18,2.83-3,3.93-7.26,4-11.36.06-6.84-3.14-14.15-9.37-17-6-2.72-13.73-.86-19.08-4.75a33.44,33.44,0,0,1-3-2.53A20,20,0,0,0,43,41c3.66.71,8.22-.2,13.39-.83,4.81-.58,10.14-.92,15.76.52h0a26.31,26.31,0,0,1,2.92.9,19.55,19.55,0,0,1,10.1,8.7v0C89.54,57.72,89.88,67.81,85.79,75.2Z"/><path class="cls-1" d="M58.59,84.06s.39,3.79,1.27,4.65,3.93,1,3.93,1"/><path class="cls-1" d="M14,73.37s-1.27,4-1,5.65,3.31,3.21,3.31,3.21"/><path class="cls-6" d="M5.43,42.66S3,51.83,6.35,52.29s4.43-8.56,4.43-8.56"/><path class="cls-6" d="M25.14,46.48s-2.44,9.17.92,9.63,4.43-8.56,4.43-8.56"/><path class="cls-7" d="M14.14,47.48s-.76,3.3,1.84,3.82,2.74-3.14,2.74-3.14"/><g class="cls-8"><path class="cls-9" d="M34.11,62.75c-.23,1.81-2.87,3-5.9,2.6s-5.29-2.16-5.07-4,2.87-3,5.9-2.61S34.33,60.93,34.11,62.75Z"/><path class="cls-9" d="M6.33,57c-.2,1.6-2.44,2.64-5.08,2.4A28.51,28.51,0,0,1,.38,56a25.19,25.19,0,0,1-.33-2.63,7.74,7.74,0,0,1,1.66,0C4.47,53.71,6.54,55.32,6.33,57Z"/></g><path class="cls-10" d="M95,42.21c-14.51,11.91-43.29,8.65-41.86.46l.06-.3c2.26-12.22,13.09-31.5,32.48-33.24.66-.06,1.3-.09,1.93-.09C105.46,8.91,109,30.7,95,42.21Z"/><path class="cls-11" d="M95,42.21c-14.51,11.91-43.29,8.65-41.86.46l.06-.3a7.31,7.31,0,0,0,5.9,3.92A17.21,17.21,0,0,0,66.59,45a67.49,67.49,0,0,0,11.33-5.29c8-4.63,15.76-11.91,15.87-21.13,0-3-.93-6.25-3.32-8.11A8.35,8.35,0,0,0,87.56,9C105.46,8.91,109,30.7,95,42.21Z"/><path class="cls-12" d="M62.45,27.7c-.63,1.19-1.08,2.84-.05,3.7a2.47,2.47,0,0,0,1.68.43A8.6,8.6,0,0,0,68,30.32,31.68,31.68,0,0,0,77.68,21c.82-1.23,1.59-2.7,1.22-4.14C77.14,10,63.67,25.38,62.45,27.7Z"/><path class="cls-10" d="M53.05,43.74c-2.71,1.58-6.11,1-9.57-1C33,36.67,22,17.79,27.89,6.71A14.19,14.19,0,0,1,31.15,2.5c9-7.64,24.29,3.28,25.77,18.47C58.59,38.24,55.13,42.51,53.05,43.74Z"/><path class="cls-12" d="M31.53,13.45a7.16,7.16,0,0,0-.9,4.51,20.41,20.41,0,0,0,5.23,11.71,6.55,6.55,0,0,0,2.32,1.87,2.59,2.59,0,0,0,2.8-.42,3.67,3.67,0,0,0,.76-2.31C42,25.35,37.34,4.79,31.53,13.45Z"/><path class="cls-11" d="M53.05,43.74c-2.71,1.58-6.11,1-9.57-1a5.29,5.29,0,0,0,2.33-.51c1.88-1,2.56-3.3,2.88-5.41a38.79,38.79,0,0,0-4.14-24c-2.41-4.51-6.07-8.74-11-10a9.08,9.08,0,0,0-2.38-.3c9-7.64,24.29,3.28,25.77,18.47C58.59,38.24,55.13,42.51,53.05,43.74Z"/><path class="cls-1" d="M12.16,33.5s4.43-22.12,14.36-22.9"/><path class="cls-13" d="M27.17,14.59c2.14.14,1.68-3.95-.61-4S25.65,14.49,27.17,14.59Z"/><path class="cls-1" d="M26.05,34.19s7.59-21.25,17.53-20.58"/><path class="cls-13" d="M43.65,17.65c2.09.44,2.23-3.67,0-4S42.15,17.33,43.65,17.65Z"/></svg>