<svg id="Layer_1" data-name="Layer 1" xmlns="http://www.w3.org/2000/svg" viewBox="0 0 114.1 130.44"><defs><style>.cls-1{fill:#ffd652;}.cls-2,.cls-4{fill:#3a1410;}.cls-2{opacity:0.17;}.cls-3{fill:#a25c39;}.cls-4{opacity:0.11;}.cls-5{fill:#f6f3a8;opacity:0.36;}.cls-6{opacity:0.72;}.cls-7{fill:#f177aa;}.cls-8,.cls-9{fill:none;stroke:#853b1c;stroke-linecap:round;stroke-linejoin:round;}.cls-8{stroke-width:0.92px;}.cls-9{stroke-width:1.19px;}.cls-10{opacity:0.6;}.cls-11{fill:#f49dc2;}.cls-12{fill:#8f2048;opacity:0.16;}</style></defs><title>cat</title><path class="cls-1" d="M75.31,108.3c0,.45,0,.92-.09,1.39-.67,6.93-4.14,15.12-4.87,16.73s-1.81,2.74-5,3h0c-3.15.21-3.46-1.37-2.73-2.52s1.12-4,1.54-8.63a35.44,35.44,0,0,0-.91-9.53c-.19-1-.35-1.55-.35-1.55,2.72-1,7.41-.1,10.17.56C74.43,108,75.31,108.3,75.31,108.3Z"/><path class="cls-1" d="M98.71,94.6c-.56,11.93-4.45,11.22-7.62,16.83s-6.76,16.53-7.76,17.7c-.61.68-2.69,1.16-4.68,1.28a8.69,8.69,0,0,1-3.38-.29c-1.87-.71.28-2.73,1.14-4.6.37-.79.59-3.65.6-6.72h0c0-4.13-.34-8.62-1.17-9a4.31,4.31,0,0,0-.62-.15c-.57-.11-1.45-.22-2.52-.33-2.7-.3-6.56-.57-9.42-.66h-.6a11.37,11.37,0,0,0-3.24.15c-1,.57-1.29,7.33-3.74,12.94-2.26,5.21-2.18,5.59-4.81,6.31l-.65.17c-3.32.87-5-.58-3.89-2.31s1.87-8.91,1.44-12.37c-.29-2.32-.46-4.77-.7-6.17-.12-.69-.26-1.12-.45-1.16-.58-.15-6.19.71-10.51-.73a122.32,122.32,0,0,1,.58,13.25c-.13,5.27-.56,6.57-2,7.37a6.85,6.85,0,0,1-.85.39,8.08,8.08,0,0,1-3.14.64c-.92,0-1.54-.35-1.47-1.07.15-1.44,0-2.73-1.44-6.76A199.29,199.29,0,0,1,21.17,95.6C19.45,86.83,21.5,80,21,79.49c-2-2.22-6.9-1.44-11.65-7.48A15.77,15.77,0,0,1,6.31,65.2a23.74,23.74,0,0,1-.41-5.31c0-.71.06-1.39.12-2.08.17-2,.47-3.9.76-5.66,0-.07,0-.12,0-.19,1-5.89,2.7-8,2.7-9.45s-1.3-12.23.58-15.39a1.47,1.47,0,0,1,1.51-.68,5.61,5.61,0,0,1,.88.19c3.49,1.08,9.27,6.51,10.69,7.83l.89-.18c.94-.17,2.57-.46,4.66-.7.66-.08,1.35-.16,2.1-.22,2.09-.2,4.5-.33,7-.33,1,0,2.09,0,3.17.1,1.66.09,3.35.25,5,.5a41.91,41.91,0,0,1,4.61,1S60.77,26,64.56,26.44s2.65,16.93,2.65,18.23c0,.87,1.32,2.48,2.17,6.46a33.77,33.77,0,0,1,.7,6.56c0,.3,0,.61,0,.93s0,.62,0,.92a16.89,16.89,0,0,1-1.22,5.65,17.28,17.28,0,0,1-.75,1.62h0a16.22,16.22,0,0,1-5.29,5.87,26.38,26.38,0,0,1,7-1.69,33.09,33.09,0,0,1,8.61.14c.76.11,1.54.26,2.34.44.49.1,1,.22,1.43.35a23.42,23.42,0,0,1,9.09,4.85A21.65,21.65,0,0,1,98.71,94.6Z"/><path class="cls-2" d="M47.09,107.41c-.12-.69-.26-1.12-.45-1.16-.58-.15-6.19.71-10.51-.73a122.32,122.32,0,0,1,.58,13.25c-.13,5.27-.56,6.57-2,7.37,0-2.94.31-6.59.24-7.4a78.45,78.45,0,0,0-3-15.62,1.72,1.72,0,0,1-.07-1.14c.33-.78,1.45-.64,2.25-.38l11.77,4a2,2,0,0,1,1.13.69A1.51,1.51,0,0,1,47.09,107.41Z"/><path class="cls-2" d="M62.68,108.69a11.37,11.37,0,0,0-3.24.15c-1,.57-1.29,7.33-3.74,12.94-2.26,5.21-2.18,5.59-4.81,6.31A36.54,36.54,0,0,0,54,120.31c1.07-4.76,1-9.68,1-14.53a1.08,1.08,0,0,1,.22-.8c.33-.34.89-.13,1.32.09l5.23,2.8a2.24,2.24,0,0,1,.84.65A.44.44,0,0,1,62.68,108.69Z"/><path class="cls-2" d="M77.4,115.55c-.11,1.07-.22,2.16-.39,3.24,0-4.13-.34-8.62-1.17-9a4.31,4.31,0,0,0-.62-.15c-.67,6.93-4.14,15.12-4.87,16.73s-1.81,2.74-5,3h0c2.39-6.18,6-15,7.32-20,.17-.61.3-1.17.4-1.65.26-1.35.23-2.17-.24-2.19,2.06.11,3.71,1.92,4.32,3.89A15.45,15.45,0,0,1,77.4,115.55Z"/><path class="cls-3" d="M91.26,76.78A29.62,29.62,0,0,1,90.58,83c-1.43,6.52-4.49,8.33-5.67,7.8-1-.43.59-10.76-2.75-18.82A23.45,23.45,0,0,1,91.26,76.78Z"/><path class="cls-3" d="M77.76,80.17c-1.5,6.8-4.71,8.69-5.93,8.15-.94-.41.33-9.37-2-17.32a33.09,33.09,0,0,1,8.61.14A32.91,32.91,0,0,1,77.76,80.17Z"/><path class="cls-4" d="M98.71,94.6c-.56,11.93-4.45,11.22-7.62,16.83s-6.76,16.53-7.76,17.7c-.61.68-2.69,1.16-4.68,1.28,4.07-8.3,6.65-17.6,5.46-26.76S77.37,85.41,68.78,81.77c-4.43-1.87-9.31-2.25-14.11-2.61l-11.2-.82c4-.7,7.16-4.1,8.59-7.91s1.38-8,1-12.08c-.63-7.24-2.72-15.2-8.91-19-5.18-3.21-11.77-2.59-17.8-1.76a6.64,6.64,0,0,1-3,0,6.91,6.91,0,0,1-2.82-2.29c-2.18-2.49-5-6.39-8.06-8.61,3.49,1.08,9.27,6.51,10.69,7.83l.89-.18c.94-.17,2.57-.46,4.66-.7.66-.08,1.35-.16,2.1-.22,2.09-.2,4.5-.33,7-.33,1,0,2.09,0,3.17.1,1.66.09,3.35.25,5,.5a41.91,41.91,0,0,1,4.61,1S60.77,26,64.56,26.44s2.65,16.93,2.65,18.23c0,.87,1.32,2.48,2.17,6.46a33.77,33.77,0,0,1,.7,6.56c0,.3,0,.61,0,.93s0,.62,0,.92a16.89,16.89,0,0,1-1.22,5.65,17.28,17.28,0,0,1-.75,1.62h0a16.22,16.22,0,0,1-5.29,5.87,26.38,26.38,0,0,1,7-1.69,33.09,33.09,0,0,1,8.61.14c.76.11,1.54.26,2.34.44.49.1,1,.22,1.43.35a23.42,23.42,0,0,1,9.09,4.85A21.65,21.65,0,0,1,98.71,94.6Z"/><path class="cls-3" d="M37.87,33c-.39,3.09-1,8-1.2,11.36-.26,3.73-1.25,6.33-3.26,0a65.58,65.58,0,0,1-2.58-11C32.91,33.16,35.32,33,37.87,33Z"/><path class="cls-3" d="M28.73,33.58c-.23,2.17-.43,4.46-.54,6.27-.21,3.52-1.05,6-2.75,0-.54-1.89-1-3.81-1.37-5.57C25,34.1,26.64,33.83,28.73,33.58Z"/><path class="cls-3" d="M46.06,33.63c-.82,2.37-1.71,5-2.3,7.09-1,3.38-2.36,5.58-2.68-.62-.13-2.43-.13-4.89,0-7C42.69,33.21,44.38,33.38,46.06,33.63Z"/><path class="cls-3" d="M6,57.81c.16-2,.46-3.9.76-5.66a1.08,1.08,0,0,1,0-.19,33.87,33.87,0,0,0,5.72,4C14.89,57.09,11.71,58.51,6,57.81Z"/><path class="cls-3" d="M6.31,65.2a23.78,23.78,0,0,1-.41-5.31A29.54,29.54,0,0,0,11.45,62C13.87,62.55,11.47,64.47,6.31,65.2Z"/><path class="cls-3" d="M70.08,57.69c-6.67,1-10.55-.55-7.9-1.7a42.32,42.32,0,0,0,7.2-4.86A33.77,33.77,0,0,1,70.08,57.69Z"/><path class="cls-3" d="M70.07,59.54a18.43,18.43,0,0,1-.36,2.8,16.41,16.41,0,0,1-.86,2.85c-5.53-.72-8.09-2.64-5.5-3.16A36.59,36.59,0,0,0,70.07,59.54Z"/><path class="cls-5" d="M30.7,127.17c-.92,0-1.54-.35-1.47-1.07.15-1.44,0-2.73-1.44-6.76A199.29,199.29,0,0,1,21.17,95.6C19.45,86.83,21.5,80,21,79.49c-2-2.22-6.9-1.44-11.65-7.48A15.77,15.77,0,0,1,6.31,65.2a23.74,23.74,0,0,1-.41-5.31c0-.71.06-1.39.12-2.08.17-2,.47-3.9.76-5.66,0-.07,0-.12,0-.19,1-5.89,2.7-8,2.7-9.45s-1.3-12.23.58-15.39a1.47,1.47,0,0,1,1.51-.68c-.13,3.6-1,7.57-.49,10.51a25.52,25.52,0,0,1,.66,4.82C11.72,45,9.93,47.92,8.87,51a20.73,20.73,0,0,0,12.8,26.3,7.74,7.74,0,0,1,2.1.93c2,1.46,1.71,4.45,1.38,6.9a50.62,50.62,0,0,0,0,14.9c1.25,7.91,4.67,15.38,5.44,23.36A25.23,25.23,0,0,1,30.7,127.17Z"/><g class="cls-6"><path class="cls-7" d="M12.4,39.18c.8.69,4.75-1.85,5.32-2.56s-5.32-6.33-6.18-6.19S11.53,38.44,12.4,39.18Z"/><path class="cls-7" d="M58.58,37.48c-.59-.5,5.21-6.62,6-6.62s.8,8.63,0,8.92S60.45,39.06,58.58,37.48Z"/></g><path class="cls-1" d="M113.68,62.79a29.9,29.9,0,0,1-3.12,11.85,26.47,26.47,0,0,1-6.06,7.81,32.12,32.12,0,0,1-8.44,5.31l-2-5.4a23.82,23.82,0,0,0,3-2.19,24.61,24.61,0,0,0,2.65-2.54,19.11,19.11,0,0,0,3.72-5.89,14,14,0,0,0,.94-5.34,14.19,14.19,0,0,0-.28-2.52,24.22,24.22,0,0,0-2.5-6.5c-1-2-2.27-4-3.64-6.24-1.79-3-3.81-6.21-5.77-9.93a81.21,81.21,0,0,1-4.85-11.09c-.25-.7-.49-1.41-.72-2.14A33.75,33.75,0,0,1,85,18.32,20,20,0,0,1,88.57,5.75a14.66,14.66,0,0,1,5.31-4.53,10.78,10.78,0,0,1,6.46-1.1c7.84,1.29,11.94,7.52,8.06,15.07-.08.16-.16.33-.26.49a48.26,48.26,0,0,0-2.42,4.82,16.13,16.13,0,0,0-1.41,7.59,23.45,23.45,0,0,0,1.6,6.93,57.18,57.18,0,0,0,3.1,6.72,40.47,40.47,0,0,1,1.89,4.15,42.36,42.36,0,0,1,2.49,9.61A38.55,38.55,0,0,1,113.68,62.79Z"/><path class="cls-3" d="M110.92,74.66a26.38,26.38,0,0,1-6.06,7.81l-4.69-4.81a19.14,19.14,0,0,0,3.71-5.9C105.93,72.66,108.76,73.81,110.92,74.66Z"/><path class="cls-3" d="M114,62.82c-3.16.29-6.84.74-9.49,1.08a25.18,25.18,0,0,0-2.5-6.5,97.92,97.92,0,0,1,11.7-1.87A38.52,38.52,0,0,1,114,62.82Z"/><path class="cls-3" d="M111.26,45.92a119.11,119.11,0,0,0-12.84,5.24c-1.81-3-3.82-6.21-5.78-9.93a67.37,67.37,0,0,1,13.63-6.18,57,57,0,0,0,3.09,6.72A39.54,39.54,0,0,1,111.26,45.92Z"/><path class="cls-3" d="M104.67,28.11a91.59,91.59,0,0,1-16.88,2c-.25-.7-.49-1.42-.72-2.14a33.86,33.86,0,0,1-1.71-9.66c6.66,2.12,16.4,2.24,20.71,2.18A16.21,16.21,0,0,0,104.67,28.11Z"/><path class="cls-3" d="M108.76,15.22c-6.4-2.2-15.41-7-19.83-9.45C92.11,1.44,96.84-.49,100.7.15,108.54,1.44,112.64,7.66,108.76,15.22Z"/><path class="cls-2" d="M113.68,62.79a29.9,29.9,0,0,1-3.12,11.85,26.47,26.47,0,0,1-6.06,7.81,32.12,32.12,0,0,1-8.44,5.31l-2-5.4a23.82,23.82,0,0,0,3-2.19,2.12,2.12,0,0,0,.73,1c1.07.73,2.49-.18,3.39-1.11a26.21,26.21,0,0,0,7-22c-1.47-9.12-7.71-16.91-9.33-26-1.1-6.22,0-12.59,0-18.9a18.72,18.72,0,0,0-1.48-8,8.55,8.55,0,0,0-3.52-3.91,10.78,10.78,0,0,1,6.46-1.1c7.84,1.29,11.94,7.52,8.06,15.07-.08.16-.16.33-.26.49a48.26,48.26,0,0,0-2.42,4.82,16.13,16.13,0,0,0-1.41,7.59,23.45,23.45,0,0,0,1.6,6.93,57.18,57.18,0,0,0,3.1,6.72,40.47,40.47,0,0,1,1.89,4.15,42.36,42.36,0,0,1,2.49,9.61A38.55,38.55,0,0,1,113.68,62.79Z"/><path class="cls-8" d="M31.39,65.82s-1.44,2,.72,2.59,2.73-2,2.73-2,.86,2.9,3.6,2.09S39.3,65,39.3,65"/><path class="cls-8" d="M34.84,66.4s.15-3.89.43-5.76"/><path class="cls-9" d="M18.59,52.73s-.29,9.49,3.59,9.06,3.31-9.06,3.31-9.06"/><path class="cls-9" d="M49.1,51.56s-.29,9.5,3.59,9.07S56,51.56,56,51.56"/><g class="cls-10"><ellipse class="cls-7" cx="18.23" cy="68.12" rx="4.96" ry="3.17"/><ellipse class="cls-7" cx="54.05" cy="68.12" rx="4.96" ry="3.17"/></g><line class="cls-8" x1="0.89" y1="59.89" x2="5.89" y2="60.64"/><line class="cls-8" x1="0.46" y1="64.07" x2="5.89" y2="63.52"/><line class="cls-8" x1="1.75" y1="68.63" x2="6.7" y2="66.79"/><line class="cls-8" x1="70.08" y1="57.69" x2="75.12" y2="56.1"/><line class="cls-8" x1="69.78" y1="61.22" x2="75.56" y2="60.64"/><line class="cls-8" x1="69.16" y1="64.36" x2="75.12" y2="65.53"/><path class="cls-11" d="M35.27,60.64a1.46,1.46,0,0,1-.69-.21c-1.57-.82-3.65-3.82.69-3.82a6.56,6.56,0,0,1,1.26.1C40,57.31,37,60.64,35.27,60.64Z"/><path class="cls-12" d="M35.27,60.64a1.46,1.46,0,0,1-.69-.21,5.39,5.39,0,0,0,2-2.34,2,2,0,0,0-.09-1.38C40,57.31,37,60.64,35.27,60.64Z"/></svg>