<svg id="Layer_1" data-name="Layer 1" xmlns="http://www.w3.org/2000/svg" viewBox="0 0 119.74 123.39"><defs><style>.cls-1{fill:#96ca59;}.cls-2,.cls-21,.cls-4{fill:#009046;}.cls-2{opacity:0.67;}.cls-3{opacity:0.3;}.cls-5{opacity:0.46;}.cls-19,.cls-6{fill:#e7e862;}.cls-7{fill:#f68e70;}.cls-8{fill:#dae021;}.cls-9{fill:#c04527;opacity:0.36;}.cls-10{fill:#e47e25;}.cls-11{fill:#faa41e;}.cls-12{fill:#93301f;opacity:0.21;}.cls-13{fill:#00b6a4;}.cls-14{fill:#006958;}.cls-14,.cls-21{opacity:0.23;}.cls-15{fill:#fff;opacity:0.33;}.cls-16{fill:none;stroke:#007059;stroke-linecap:round;stroke-linejoin:round;stroke-width:0.92px;}.cls-17{fill:#ffc10e;}.cls-18{fill:#f49dc2;}.cls-19{opacity:0.53;}.cls-20{fill:#f6f3a8;opacity:0.61;}</style></defs><title>chicken</title><path class="cls-1" d="M64.38,29.64c-.08,1.38-.21,2.74-.41,4-1.3,8.5-.43,19.82-.43,19.82s-6.86-6.45-7.6-19.87a32.65,32.65,0,0,1,2.3-14.38h0c1.8-4.23,4-6.4,4.58-6.07C63.66,13.7,64.84,22,64.38,29.64Z"/><path class="cls-1" d="M75,31.6h0c-.57,1.45-1.19,2.91-1.85,4.35q-1.25,2.68-2.3,5l0,0C66.69,49.7,64.38,54,64.06,54.63a.22.22,0,0,1,0,.06S62.51,35,67.08,24q.32-.76.66-1.5C72.41,12.48,80.25,7.38,80.89,8S79.57,20,75,31.6Z"/><path class="cls-1" d="M89.85,35.18l-.43.53c-.92,1.13-1.85,2.23-2.76,3.3a40.8,40.8,0,0,1-3.34,3.47,57.07,57.07,0,0,1-10.44,7.63c-.75.45-1.49.85-2.19,1.23-1.46.79-2.78,1.44-3.9,2s-2.1,1-2.76,1.36a.22.22,0,0,0,0-.06A110,110,0,0,1,70.8,41l0,0c3.3-5.68,7.62-11.84,12.56-15.81,1.12-.9,2.2-1.7,3.23-2.42,9.42-6.54,15.34-6,16.06-5.7S96.85,26.57,89.85,35.18Z"/><path class="cls-1" d="M119.74,38.49c.07.48-10.13,4.94-22.46,8.4-2,.56-4.06,1.1-6.13,1.59l-.43.1c-6.41,1.48-12,2.6-16.22,3.4-3.55.67-6.21,1.11-7.71,1.35l-1.4.21A149.74,149.74,0,0,1,83.32,42.48a64.13,64.13,0,0,1,15.44-6c.81-.18,1.6-.32,2.37-.44C113.8,34,119.66,38,119.74,38.49Z"/><path class="cls-1" d="M114.25,67.24A201.15,201.15,0,0,1,95,60c-2-.9-3.89-1.84-5.51-2.76A51,51,0,0,0,74.5,52c-1.6-.32-2.93-.52-3.81-.64l-1.18-.15s1.28-.49,3.37-1.08C77,49,84.32,47.39,91.15,48.48a20,20,0,0,1,8.44,3.24c.84.6,1.64,1.19,2.39,1.78C111,60.53,114.15,67,114.25,67.24Z"/><path class="cls-2" d="M59.2,41.77l.13-.09c.85-.45,1.45.56,1.69,1.21,1.73,4.69.45,10.37,3.25,14.52,1.27-1.61,1.09-3.89.88-5.93-.41-3.91-.68-8,.92-11.62.22-.5.56-1,1.1-1.08.79-.05,1.16.95,1.25,1.74A29.86,29.86,0,0,1,67,53.75a1.7,1.7,0,0,0,1.61-1.21,6.65,6.65,0,0,0,.25-2.14,12.8,12.8,0,0,1,9.25-11.58,2.66,2.66,0,0,1,0,3.27,12.1,12.1,0,0,1-2.62,2.37A14.09,14.09,0,0,0,70.65,52a43.17,43.17,0,0,1,7.06-5.52,17.33,17.33,0,0,1,4.23-1.78c.69-.18,3.56-1,4.07-.4,1.1,1.28-3.53,3.26-4.28,3.65l-8.88,4.65c5.12-2.2,10.9-4.42,16.1-2.42.52.2,1.11.54,1.16,1.11.06.73-.81,1.16-1.53,1.34a23.19,23.19,0,0,1-6.43.64c-2.47-.1-5.08-.58-7.34.42A14.52,14.52,0,0,0,72,55.55a28.82,28.82,0,0,1-8,4.2c-4.65,1.56-3.62-1.3-3.57-4.08a41.56,41.56,0,0,0-.83-7.46C59.38,47.07,58,42.74,59.2,41.77Z"/><g class="cls-3"><path class="cls-4" d="M62.83,13.18c.83.52,2,8.77,1.55,16.46a18.54,18.54,0,0,0-.31,2c-.57-2.52.18-5.16,0-7.73-.27-3-2.64-6-5.78-4.64C60.05,15,62.29,12.85,62.83,13.18Z"/><path class="cls-4" d="M80.89,8c.6.61-1.32,12-5.91,23.58h0c-.34.42-.66.83-1,1.25a73.32,73.32,0,0,0,.87-13.4c0-.6-.11-1.32-.64-1.61a1.7,1.7,0,0,0-1.63.3,17.25,17.25,0,0,0-4.86,4.34C72.41,12.48,80.25,7.38,80.89,8Z"/><path class="cls-4" d="M89.85,35.18A15.47,15.47,0,0,0,92.91,24a2.53,2.53,0,0,0-.63-1.58A2.5,2.5,0,0,0,90.4,22a14.6,14.6,0,0,0-3.79.71c9.42-6.54,15.34-6,16.06-5.7S96.85,26.57,89.85,35.18Z"/><path class="cls-4" d="M114.25,67.24A201.15,201.15,0,0,1,95,60h0a14.43,14.43,0,0,0,3.61.47c2.83-.34,4.28-3.94,3.45-6.68L102,53.5C111,60.53,114.15,67,114.25,67.24Z"/><path class="cls-4" d="M119.74,38.49c.07.48-10.13,4.94-22.46,8.4a59.44,59.44,0,0,0,6.66-4.17C105,42,106.15,41,106.1,39.65s-1.37-2.26-2.61-2.78a15.25,15.25,0,0,0-2.36-.8C113.8,34,119.66,38,119.74,38.49Z"/></g><g class="cls-5"><path class="cls-6" d="M79.06,38c1.23.74,2.77-.23,3.81-1.22,1.48-1.41,9.38-9.74,4.54-9.88C84.86,26.8,77.91,37.27,79.06,38Z"/><path class="cls-6" d="M71.35,25c-.34-1.66-1.48-.65-2,.32a13.49,13.49,0,0,0-.85,3.49,44,44,0,0,0-.91,7.42,1.52,1.52,0,0,0,.2,1,1.07,1.07,0,0,0,1.39.12,2.92,2.92,0,0,0,.89-1.23A18.21,18.21,0,0,0,71.35,25Z"/><path class="cls-6" d="M61.05,35.89a27.51,27.51,0,0,0,.4-5c0-1.22.07-3.68-.7-4.71-1.24-1.64-2.4,2-2.46,3a21.37,21.37,0,0,0,.56,7.43,1.42,1.42,0,0,0,.52.88C60.16,38,60.9,36.8,61.05,35.89Z"/><path class="cls-6" d="M99.61,40.83c1.32-.91.74-1.52-.56-1.5a14.51,14.51,0,0,0-3.35.5,14.3,14.3,0,0,0-6.07,3.32c-.39.37-.79.9-.59,1.4a1.18,1.18,0,0,0,.62.58c2,1,4.24-.34,6-1.59Z"/><path class="cls-6" d="M96.82,56.39A1.23,1.23,0,0,0,98,54.63c-.24-.65-1-1-1.49-1.43-1.07-.8-3.15-2.57-4.56-1.54a1.28,1.28,0,0,0-.19,1.64,3.78,3.78,0,0,0,1.36,1.18l2.1,1.27A3.4,3.4,0,0,0,96.82,56.39Z"/></g><path class="cls-7" d="M27.58,111.32a1.83,1.83,0,0,0-2.07-.64s1.54.69,1.91,1.75Z"/><path class="cls-7" d="M25.09,114.22a2.26,2.26,0,0,0-1.92,0,4.66,4.66,0,0,1,1.71,1.11A.8.8,0,0,0,25.09,114.22Z"/><path class="cls-7" d="M29.13,120a4.86,4.86,0,0,0-.82,1.88,18.71,18.71,0,0,1,2.37-1.22S29.9,119.6,29.13,120Z"/><path class="cls-7" d="M42.43,112.52a3.22,3.22,0,0,1,2.27.61,12.71,12.71,0,0,0-2.33,1.13S41.65,113.2,42.43,112.52Z"/><path class="cls-8" d="M33.89,99.8s.92,12.14.78,12.57-3.21.46-5.67-1-2.45,1-1.2,2.16,4.68,1,4.68,1-3.5,1.53-6.25-.13-2.53,2.82,1.31,2.48a17.27,17.27,0,0,0,6.3-1.72A23.56,23.56,0,0,1,29.49,119c-1.89,1.09-.06,3.08,1.89,1.37s3.95-4.86,4.66-5.58,3.48,1.55,5.9-.23,1.43-2.86-1.12-2.09-4.2.6-4.58-.57-.37-12.42-.37-12.42Z"/><path class="cls-7" d="M36.23,112.39a1.9,1.9,0,0,0-2.15-.66s1.6.71,2,1.82Z"/><path class="cls-7" d="M33.64,115.4a2.38,2.38,0,0,0-2,0,4.91,4.91,0,0,1,1.79,1.15A.83.83,0,0,0,33.64,115.4Z"/><path class="cls-7" d="M37.84,121.44a5,5,0,0,0-.85,2,19,19,0,0,1,2.46-1.27S38.64,121,37.84,121.44Z"/><path class="cls-7" d="M51.67,113.64a3.31,3.31,0,0,1,2.35.63,13.13,13.13,0,0,0-2.42,1.18S50.85,114.35,51.67,113.64Z"/><path class="cls-8" d="M42.79,100.41s1,12.62.81,13.07-3.34.48-5.9-1.07-2.54,1.09-1.24,2.24,4.86,1.07,4.86,1.07-3.63,1.58-6.5-.13-2.62,2.92,1.37,2.57a17.87,17.87,0,0,0,6.55-1.79,24.29,24.29,0,0,1-4.53,4c-2,1.13-.05,3.19,2,1.42s4.1-5,4.85-5.8,3.62,1.61,6.12-.24,1.5-3-1.15-2.17-4.38.62-4.76-.6-.39-12.91-.39-12.91Z"/><path class="cls-7" d="M43.73,25c.34.16,6.32,3.14,5.1,8.78A6.41,6.41,0,0,1,48.45,35c-.87,2.11-2.47,2-4.13,1.23a29.49,29.49,0,0,1-4-2.62,2.58,2.58,0,0,0-4,1s-10.4-12.49-21.28-4.39a18,18,0,0,1-.86-4.78A26.15,26.15,0,0,1,17.9,10.7c2-3.5,4.1-5.45,5.85-6.25,3.6-1.65,5.82,1.5,3.49,5.93.31-.47,5.51-8.07,14.43-10.07,9.21-2.06,6.87,6.45-3.93,13.05,0,0,8.74-3.33,14,3.64S49.57,26.36,43.73,25Z"/><path class="cls-9" d="M43.73,25c.34.16,6.32,3.14,5.1,8.78A6.41,6.41,0,0,1,48.45,35c-.87,2.11-2.47,2-4.13,1.23a29.49,29.49,0,0,1-4-2.62,2.58,2.58,0,0,0-4,1s-10.4-12.49-21.28-4.39a18,18,0,0,1-.86-4.78,18.2,18.2,0,0,1,12.65-2c4.34.93,7.56,3.7,11.16,6.3a5.07,5.07,0,0,0,2.32,1.17c2.32.23,3.48-3.23,2.17-5.16s-3.82-2.58-6.11-3.08a10.56,10.56,0,0,0,7.73-1.44,2.89,2.89,0,0,0,1.15-1.15,2.54,2.54,0,0,0-.14-2.05c-1-2.14-3.4-3.29-5.74-3.41A19.39,19.39,0,0,0,32.53,16c3.92-3.23,8.18-7.18,8.09-12.25A49.52,49.52,0,0,0,25.46,14.27a16,16,0,0,0,.88-5.47,5.1,5.1,0,0,0-2.59-4.35c3.6-1.65,5.82,1.5,3.49,5.93.31-.47,5.51-8.07,14.43-10.07,9.21-2.06,6.87,6.45-3.93,13.05,0,0,8.74-3.33,14,3.64S49.57,26.36,43.73,25Z"/><path class="cls-10" d="M33.48,98.81s.24,3.67,1.87,3.9,1.47-4.37,1.47-4.37Z"/><path class="cls-11" d="M75.48,67.12A48.47,48.47,0,0,1,65.67,86c-8.3,9.51-18.53,13.79-19.6,13.66s-.08,3.57-2.28,3.74-2.06-3-3.16-3.41-5,.13-14.86-2a29.13,29.13,0,0,1-12.19-6.56c-3.18-2.73-5-5.23-4.8-5.27,0,0,19.78-31.06,25.2-23.23s18.37-2.47,24.17-6.57,14.19-13,17.52-4.29C77.19,56.05,77,61.49,75.48,67.12Z"/><path class="cls-12" d="M75.48,67.12a5,5,0,0,0-2.81-.1c-1.92.57-3,2.51-4.34,4a13.35,13.35,0,0,1-6.19,4.06c1.84-.39,3.34,2.51,2.32,4.28s-3.48,2.51-5.6,2.95a74.16,74.16,0,0,1-11.81,1.84,37,37,0,0,1-16.29-3c0,1.87-1.83,3.35-3.68,3.64a10.08,10.08,0,0,1-5.43-1.13A3.13,3.13,0,0,1,16,86.28c1.33,4-.16,4.94-2.46,5.14-3.18-2.73-5-5.23-4.8-5.27,0,0,19.78-31.06,25.2-23.23s18.37-2.47,24.17-6.57,14.19-13,17.52-4.29C77.19,56.05,77,61.49,75.48,67.12Z"/><path class="cls-13" d="M42.74,71.63c-2.32,2-6.31-2.82-6.31-2.83,1.27,4.48,2.49,7.44-.35,8.83-4,2-6.66-2.86-7.6-5,.82,2.23,2.38,7.65-1.17,9.09-3.93,1.61-6.51-4-7.09-5.47.45,1.38,2,6.61-.76,7.78-2.59,1.09-4.65-3.56-5.37-5.43.7,2.1,2.25,8-1.93,9.42l-.14,0C4.47,90.33-2.61,54.35,5.54,38.62A27,27,0,0,1,15,27.83C22.25,23.31,30.3,24.69,34.77,30c6.62,7.83,1.61,19.61.61,25-.08.37-.13.75-.19,1.11,0,0,0,.09,0,.12l-.06.59c-.2,3.35,2.28,7.32,6,7.91C45,65.36,45.08,69.66,42.74,71.63Z"/><path class="cls-14" d="M42.74,71.63c-2.32,2-6.31-2.82-6.31-2.83,1.27,4.48,2.49,7.44-.35,8.83-4,2-6.66-2.86-7.6-5,.82,2.23,2.38,7.65-1.17,9.09-3.93,1.61-6.51-4-7.09-5.47.45,1.38,2,6.61-.76,7.78-2.59,1.09-4.65-3.56-5.37-5.43.7,2.1,2.25,8-1.93,9.42a12.45,12.45,0,0,0-.09-10.16c1.19-1,2.81.49,3.63,1.79s2.37,2.8,3.62,1.9q-.13-3.65-.26-7.27c2.68-.75,4.17,5.2,6.6,3.86,1.69-5.59-5.63-10.76-4.38-16.46.73-3.36,4.13-5.35,6-8.24,2.57-4,1.89-9.22.92-13.9-.66-3.18-1.51-6.51-3.8-8.82A10,10,0,0,0,15,27.83C22.25,23.31,30.3,24.69,34.77,30c6.62,7.83,1.61,19.61.61,25-.08.37-.13.75-.19,1.11,0,0,0,.09,0,.12l-.06.59c-.2,3.35,2.28,7.32,6,7.91C45,65.36,45.08,69.66,42.74,71.63Z"/><path class="cls-15" d="M6.82,55.27A6.32,6.32,0,0,0,6.4,53c-.34-.89-1.57-1.53-2.06-.46a10.73,10.73,0,0,0-.5,4.06,51.94,51.94,0,0,0,.72,10.08c.07.44.58,3.08,1.78,2.53.8-.37.53-2.18.54-2.82,0-1.09-.12-2.2-.08-3.29,0-1.51-.13-3-.15-4.56C6.65,57.39,6.83,56.35,6.82,55.27Z"/><path class="cls-15" d="M6.41,70.82c1.7.17,2.07,3.82.5,4.59S4.89,70.67,6.41,70.82Z"/><path class="cls-16" d="M8.27,33.77s-2.64,4.39-.4,5.55S12,36,12,36"/><path class="cls-16" d="M24.35,38.15s-2.29,4.79.21,5.62,4-3.39,4-3.39"/><path class="cls-17" d="M16,46.94c-.83,3.53-5.48,4.34-7.33,3.87a31.42,31.42,0,0,1-5.12-2C1.77,47.94.26,46.92.06,46a2.35,2.35,0,0,1,0-.95c.17-1,1-1.75,2.51-2.32a13.06,13.06,0,0,1,2.89-.69,18.86,18.86,0,0,1,3.24-.2c.35,0,.68,0,1,.07,2.37.23,4.2,1.07,4.44,2.75C14.51,47.29,16,46.94,16,46.94Z"/><path class="cls-11" d="M16,46.94c-.83,3.53-5.47,4.34-7.33,3.87S.49,48,.07,46a2.19,2.19,0,0,1,0-.95C.76,46.18,3.41,46.85,6.59,48,10.18,49.24,13.72,48,16,46.94Z"/><path class="cls-18" d="M29.2,49.37C29,50.5,27.14,51.15,25,50.82s-3.79-1.49-3.63-2.62,2.07-1.77,4.24-1.45S29.37,48.25,29.2,49.37Z"/><path class="cls-19" d="M9.69,41.92A2.26,2.26,0,0,1,9.11,43a4.85,4.85,0,0,1-2.17,1.09,22.61,22.61,0,0,1-4.48.79c-.43,0-1-.07-1-.5a.77.77,0,0,1,.18-.5,6.73,6.73,0,0,1,1-1.16,13.06,13.06,0,0,1,2.89-.69,18.86,18.86,0,0,1,3.24-.2C9,41.86,9.36,41.88,9.69,41.92Z"/><path class="cls-9" d="M16,46.94c-.83,3.53-5.48,4.34-7.33,3.87a31.42,31.42,0,0,1-5.12-2,25.35,25.35,0,0,0,4.17-.73A6.23,6.23,0,0,0,10.8,46a2.65,2.65,0,0,0-.22-3.47,4.24,4.24,0,0,0-1.9-.67c2.84.08,5.18.9,5.45,2.82C14.51,47.29,16,46.94,16,46.94Z"/><path class="cls-8" d="M68.34,67.38c.49,3.34-11.83,5.55-13.55,6s7.41,1.32,7,4.79S48,83.21,38.46,80.71c-.44-.11-.88-.23-1.3-.37a18.38,18.38,0,0,1-10.4-7.66,11.64,11.64,0,0,1-1.33-9.27c1.29-4.67,3.72-7.44,6.53-8.9a12.88,12.88,0,0,1,9.95-.59c5.61,1.87,12.74-3,15.69-4.92.36-.23.74-.48,1.13-.75C61.54,46.37,65,44,66.26,45.54c1.44,1.72-4.93,8.13-5.9,9.6s8.19-4,9.44-1.49-7.2,8.16-10.1,10.06S67.87,64,68.34,67.38Z"/><path class="cls-20" d="M38.54,62.11a20.29,20.29,0,0,1-4.69,2.32l4.06-.32c.64-.06,1.4,0,1.74.49.55.88-.65,1.81-1.63,2.16q-3.3,1.17-6.6,2.37a5.11,5.11,0,0,1,4.82,2.44,1.29,1.29,0,0,1,.18,1.22,1.37,1.37,0,0,1-1,.54A19.84,19.84,0,0,1,28,72.92c-.42-.07-.83-.15-1.25-.24a11.64,11.64,0,0,1-1.33-9.27c1.29-4.67,3.72-7.44,6.53-8.9.35-.08.69-.15,1-.2a2.48,2.48,0,0,1,2,.32c.92.82.24,2.4-.73,3.18s-2.21,1.37-2.63,2.53L38.24,59a1.91,1.91,0,0,1,1.11,0,1.3,1.3,0,0,1,.54,1.68A3.41,3.41,0,0,1,38.54,62.11Z"/><path class="cls-21" d="M68.34,67.38c.49,3.34-11.83,5.55-13.55,6s7.41,1.32,7,4.79S48,83.21,38.46,80.71c-.44-.11-.88-.23-1.3-.37a25.64,25.64,0,0,0,9.62-1.56c1.68-.6,3.52-1.73,3.57-3.51.08-2.36-2.87-3.43-5.19-3.79A40.41,40.41,0,0,0,55.6,69.61c1.44-.47,3.11-2.19,1.93-3.13a2.24,2.24,0,0,0-1.64-.26l-7.4.83a18.09,18.09,0,0,0,10.15-8.73,20.35,20.35,0,0,0-8,3.08c2.42-2.35,4.81-4.75,7.16-7.16a6.92,6.92,0,0,0,2.08-3.15,2.61,2.61,0,0,0-1.18-2.84C61.54,46.37,65,44,66.26,45.54c1.44,1.72-4.93,8.13-5.9,9.6s8.19-4,9.44-1.49-7.2,8.16-10.1,10.06S67.87,64,68.34,67.38Z"/></svg>