<svg id="Layer_1" data-name="Layer 1" xmlns="http://www.w3.org/2000/svg" viewBox="0 0 117.49 134.1"><defs><style>.cls-1{fill:#ffc943;}.cls-2{fill:#c46d48;}.cls-3{fill:#842019;opacity:0.15;}.cls-4{fill:#ffc928;}.cls-5{fill:#f49dc2;}.cls-6{fill:#b55d3b;}.cls-7{fill:#ffd652;}.cls-16,.cls-8{fill:#f7911e;}.cls-8{opacity:0.75;}.cls-10,.cls-9{fill:#a25c39;}.cls-10{opacity:0.58;}.cls-11{opacity:0.71;}.cls-12,.cls-13{fill:none;stroke:#853b1c;stroke-linecap:round;stroke-linejoin:round;stroke-width:0.89px;}.cls-13{opacity:0.21;}.cls-14{opacity:0.76;}.cls-15{fill:#f6f3a8;opacity:0.36;}</style></defs><title>giffer</title><path class="cls-1" d="M53.22,131.89a4,4,0,0,0,2.73.83,9.17,9.17,0,0,0,4.62-.83c.56-.37,1.16-2.7,1.72-5.56.36-1.89.7-4,1-6,.51-3.48.86-6.39.86-6.39S53,109.53,53.22,115.3c.12,3.23-.17,7.65-.29,11.12C52.82,129.19,52.82,131.36,53.22,131.89Z"/><path class="cls-1" d="M25.18,115.65c.33,3.21.32,7.64.43,11.12.06,2.77.21,4.93.63,5.43s1.93.73,3.45.62a8.35,8.35,0,0,0,3.89-1.08c.53-.41,1-2.77,1.36-5.66.25-1.93.45-4.1.61-6.08.3-3.47.45-6.36.45-6.36S24.59,109.9,25.18,115.65Z"/><path class="cls-2" d="M53.21,131.89c.89,1.18,5.8,1,7.36,0,.55-.38,1.16-2.71,1.71-5.57a26.07,26.07,0,0,1-2.86.32,39.1,39.1,0,0,1-6.49-.22C52.82,129.18,52.82,131.36,53.21,131.89Z"/><path class="cls-2" d="M26.24,132.2c1,1.13,5.85.68,7.34-.46.53-.41,1-2.78,1.35-5.67a26.79,26.79,0,0,1-2.83.51,40.2,40.2,0,0,1-6.49.19C25.68,129.53,25.81,131.7,26.24,132.2Z"/><path class="cls-3" d="M53.22,131.89a4,4,0,0,0,2.73.83,13.34,13.34,0,0,0,.51-3.5q.24-3.47.73-6.91a2.48,2.48,0,0,1,.76-1.73,2.63,2.63,0,0,1,1.33-.33c.82,0,2.42.13,4,.13.51-3.48.86-6.39.86-6.39S53,109.53,53.22,115.3c.12,3.23-.17,7.65-.29,11.12C52.82,129.19,52.82,131.36,53.22,131.89Z"/><path class="cls-3" d="M25.18,115.65c.33,3.21.32,7.64.43,11.12.06,2.77.21,4.93.63,5.43s1.93.73,3.45.62a23,23,0,0,0,0-2.35A36.57,36.57,0,0,1,30.93,120c.19-.67,2.53-.32,4.62,0,.3-3.47.45-6.36.45-6.36S24.59,109.9,25.18,115.65Z"/><path class="cls-4" d="M29.14,14.78c.17,1.3-1-2.57-1.34-10-.29-5.59-5.31-6.69-6.94-1.34s3,11.3,3,11.3S25.5,15.52,29.14,14.78Z"/><path class="cls-5" d="M24.39,10.41c2.43,1,1.38-5.74-.28-5.75S21.72,9.27,24.39,10.41Z"/><path class="cls-6" d="M9.89,28.14S4.39,23.7,2.61,25s-2.45,7.15-.89,8.7,7.71,2.36,7.71,2.36Z"/><path class="cls-6" d="M9.43,38.68s-7.68-2-8.59,0-1.32,9.08,0,9.55,7.79,0,7.79,0Z"/><path class="cls-6" d="M8.18,52.45S1.53,50.45.84,52s-1.32,7.13,0,8,6.45,0,6.45,0Z"/><path class="cls-6" d="M8.18,64.71s-7.1-2.22-7.34,0S.6,72.29,2.39,73.19s5.35,0,5.35,0Z"/><path class="cls-6" d="M12.42,22.14s-7.83.44-7.71-3.79S10,9.29,11.42,9.65s5.46,5.58,5.46,5.58S13.65,20.9,12.42,22.14Z"/><path class="cls-2" d="M19.77,14.11S17.1,7.65,19.77,7s5.8-.07,6.58.52,0,6.61,0,6.61Z"/><path class="cls-2" d="M29.14,14.78s-1.41-6.91,1.19-7.24,6.39.33,6.39,2.11-1.56,5.13-1.56,5.13Z"/><path class="cls-7" d="M5.24,76.37c0,4.77.16,9.31.35,13.59.23,5,.55,9.7,1,14,.17,1.88.34,3.68.53,5.39.53,4.74,1.11,8.84,1.67,12.21.28,1.65.56,3.13.82,4.42.74,3.66,1.39,5.83,1.75,6.31.52.7,2,1.09,3.74,1.22,2.66.19,5.7-.26,5.82-1.22.08-.64.17-3.31.32-6.27.13-2.73.31-5.7.57-7.55a3.73,3.73,0,0,1,.47-1.78c.82-.62,8,1.21,20.6,1.52,1.13,0,2.31,0,3.53,0,2.61,0,4.89,0,6.88-.14,5.13-.22,8.33-.64,10.47-.76,1.71-.11,2.74,0,3.55.45a1.37,1.37,0,0,1,.51.92c.37,1.65-.21,5-.94,8.17-.37,1.63-.79,3.2-1.12,4.41a2.22,2.22,0,0,0,2.06,2.81,21.77,21.77,0,0,0,2.42,0c.61,0,1.21-.09,1.74-.15l.65-.07a4.23,4.23,0,0,0,2.72-1.48,32.62,32.62,0,0,0,3.38-4.87,42.5,42.5,0,0,0,5.07-16.34A46,46,0,0,0,83.17,97a25.43,25.43,0,0,0-1.42-4.67C79.36,86.8,72.67,85.07,64.62,85h0a80.35,80.35,0,0,0-8.33.45c-1.29.12-2.6.27-3.9.43l-1.61.21c-4.49.6-8.08,1.07-11,1.25l-1.56.07a16.41,16.41,0,0,1-5-.46,6.8,6.8,0,0,1-4.11-3.17,2.51,2.51,0,0,1-.26-.57h0A19.73,19.73,0,0,1,28.05,78h0c-.09-1.4-.12-3-.11-4.65,0-5.22.41-11.41.94-16.52h0c.61-5.87,1.42-10.3,2-10.18s1.77.4,3.44.71c5,.92,13.9,2,18.79-1.67a8.31,8.31,0,0,0,1-.82,13.09,13.09,0,0,0,3.77-8c.6-5.4-1.93-11.54-8.23-16.12l-.48-.34c-7.85-5.54-14-6.14-16.14-7-.46-.18-.73-.37-.77-.64A76.92,76.92,0,0,1,32.49,5s3-.34,0-3.32a2.08,2.08,0,0,0-3.54,1.5,2.34,2.34,0,0,0,1.56,2.26s-.22,3.34-.45,6a6.65,6.65,0,0,1-.29,2c-.28.53-.95.37-2.83,0-1.13-.24-2-.34-2.67-.48-1.2-.25-1.8-.64-2.23-2.2a26.94,26.94,0,0,1-.45-6.61,1.59,1.59,0,0,0,1.12-2.34c-.9-1.81-3.57-1.75-4,0a1.91,1.91,0,0,0,1.12,2.34v7.28a4.6,4.6,0,0,1-.17,1.44c-.42,1.31-1.57.12-2.28-.77s-1.95-5-3.61-8a10.8,10.8,0,0,0-.63-1C11.08.07,4.84.29,5.73,7s6,8.25,7.14,9.59c.58.69-1.3,4.43-3.34,13.05A150.7,150.7,0,0,0,6.61,46.73C6.29,49.58,6,52.65,5.78,56c-.24,3.65-.41,7.59-.49,11.86Q5.22,72.22,5.24,76.37Z"/><path class="cls-8" d="M34.35,47.36c5.37,1,15.16,2.11,19.75-2.49,6-6,5.36-16.94-4.45-24.06l-.49-.34c-3.3.21-8.69,2.42-12.44,13.27A42.34,42.34,0,0,0,34.35,47.36Z"/><path class="cls-9" d="M24.9,31.91c0,1.54.65,2.78,1.45,2.78s1.45-1.24,1.45-2.78-.65-2.79-1.45-2.79S24.9,30.37,24.9,31.91Z"/><path class="cls-10" d="M47.36,36.09c0,.77.32,1.39.72,1.39s.73-.62.73-1.39-.33-1.4-.73-1.4S47.36,35.32,47.36,36.09Z"/><g class="cls-11"><path class="cls-12" d="M45.18,47.28c-4.45.49-6-5.92-6-5.92"/><path class="cls-12" d="M41.46,41.36a9.67,9.67,0,0,1-4.07,0"/></g><path class="cls-13" d="M30.92,46.66a22.86,22.86,0,0,1-10.06-5.13"/><path class="cls-5" d="M12.42,12.84c2.63.14-.67-5.86-2.23-5.3S9.52,12.69,12.42,12.84Z"/><path class="cls-2" d="M67.77,134.08a30.86,30.86,0,0,0,4.81-.26,4.16,4.16,0,0,0,2.71-1.48,31.69,31.69,0,0,0,3.39-4.87c-3-.68-6.88-.46-9.55-.59a22,22,0,0,0-2.3,0c-.38,1.63-.79,3.2-1.12,4.4A2.22,2.22,0,0,0,67.77,134.08Z"/><path class="cls-2" d="M9.56,126c.74,3.65,1.39,5.83,1.74,6.31,1.34,1.78,9.37,1.56,9.56,0,.08-.64.18-3.32.32-6.28a35.78,35.78,0,0,1-3.61.43A37.06,37.06,0,0,1,9.56,126Z"/><g class="cls-14"><path class="cls-9" d="M6.61,46.73a5.83,5.83,0,0,0,2.08.2,8.25,8.25,0,0,0,3.85-1.48,6.81,6.81,0,0,0,2.29-2.27c1.14-2,.6-4.6-.56-6.59a19.18,19.18,0,0,1-1.12-2c-.27-.61-.41-1.27-.65-1.88a6.14,6.14,0,0,0-3-3.12A150.3,150.3,0,0,0,6.61,46.73Z"/><path class="cls-9" d="M23.66,63.76a5.42,5.42,0,0,1-.7,2.46,5.46,5.46,0,0,0,2.12,6.19,5.83,5.83,0,0,0,2.85,1c0-5.22.41-11.42.95-16.53a16.64,16.64,0,0,0-5.1-.65.94.94,0,0,0-1.11.78c-.47,1.45-.92,3.08-.26,4.46C22.8,62.22,23.55,62.87,23.66,63.76Z"/><path class="cls-9" d="M5.24,76.37a17.87,17.87,0,0,0,5.51-.11,8.88,8.88,0,0,0,2.88-.85,6.38,6.38,0,0,0,3-4.41,10.76,10.76,0,0,0-.57-5.41,17.06,17.06,0,0,1-.89-2.82c-.14-.9,0-1.82-.21-2.71a5.17,5.17,0,0,0-3-3.76,10.06,10.06,0,0,0-4.85-.42L5.77,56c-.24,3.64-.41,7.58-.49,11.86C5.23,70.75,5.21,73.6,5.24,76.37Z"/><path class="cls-9" d="M20.88,86.67c.89,2,3.2,2.84,5.33,3.23a8.88,8.88,0,0,0,2.24.17,6.91,6.91,0,0,0,4.8-3.1,6.74,6.74,0,0,1-4.11-3.16c-.59-1-.93-3-1.09-5.79h0c-2.94-.12-6.06.74-7.08,2.74a5.85,5.85,0,0,0-.48,2.38A7.55,7.55,0,0,0,20.88,86.67Z"/><path class="cls-9" d="M5.59,90c.23,5,.55,9.7.94,14a15.57,15.57,0,0,0,4.7-1.79,6.44,6.44,0,0,0,3.07-2.57,6.42,6.42,0,0,0,.4-2.76,15.11,15.11,0,0,0-.39-4.09,5.09,5.09,0,0,0-2.4-3.2,6.75,6.75,0,0,0-4.57-.12A9.44,9.44,0,0,0,5.59,90Z"/><path class="cls-9" d="M26.55,97c-2.31,1-3.55,3.48-4.32,5.86a5.6,5.6,0,0,0-.15,4.06A5,5,0,0,0,25,109.16a25.69,25.69,0,0,0,8.37,1.33,13.54,13.54,0,0,0,3.71-.24C45.83,108,34.85,93.52,26.55,97Z"/><path class="cls-9" d="M38.31,89.77A7.76,7.76,0,0,0,38.76,92a5.17,5.17,0,0,0,1,1.52,8.38,8.38,0,0,0,7.09,2.9,6.45,6.45,0,0,0,5.55-5,22.85,22.85,0,0,0,0-5.51q-.81.09-1.62.21c-5.33.71-9.4,1.23-12.53,1.32A13,13,0,0,0,38.31,89.77Z"/><path class="cls-9" d="M56,88a9.35,9.35,0,0,0,2.95,6.55,6.13,6.13,0,0,0,6.86.88A10.45,10.45,0,0,0,68.31,93a4,4,0,0,0,1-1.63c.29-1.31-.76-2.51-1.73-3.45S65.63,86,64.62,85h0a82.83,82.83,0,0,0-8.33.44A7,7,0,0,0,56,88Z"/><path class="cls-9" d="M74.09,109.46a7.87,7.87,0,0,0,4.54,2.35,7.24,7.24,0,0,0,5.11-.67A46,46,0,0,0,83.17,97a7.7,7.7,0,0,0-5.24-1.84,3.15,3.15,0,0,0-2.87,1.51c-.87,1.72.62,3.9-.09,5.69a19.78,19.78,0,0,1-1.57,2.25A4.33,4.33,0,0,0,74.09,109.46Z"/><path class="cls-9" d="M7.07,109.32c.52,4.73,1.1,8.83,1.67,12.2a9.67,9.67,0,0,0,2.59-.74c1.19-.47,2.51-1.08,2.9-2.3.47-1.46-.67-2.93-.87-4.45a19.8,19.8,0,0,0-.13-2.32,3.84,3.84,0,0,0-3.43-2.62A7.61,7.61,0,0,0,7.07,109.32Z"/><path class="cls-9" d="M57.37,100.82a11.52,11.52,0,0,1,5.52,1.49,6.8,6.8,0,0,1,3.27,4.54A4.83,4.83,0,0,1,64,111.79a7.09,7.09,0,0,1-2.4.71,10.47,10.47,0,0,1-4.46-.08c-.61-.18-1.18-.45-1.79-.59-1.29-.3-2.69-.06-3.9-.59a6.21,6.21,0,0,1-1.92-1.51c-1-1-2.07-2.35-1.85-3.8C48.3,101.55,54,100.66,57.37,100.82Z"/></g><path class="cls-15" d="M39.8,87.37a46,46,0,0,0,10.21,1c4.42-.07,8.82-.79,13.24-.72s9,1,12.43,3.87c5.95,5,6.39,13.93,5.22,21.59C80,119,78.34,125,74.78,129.82a29.6,29.6,0,0,0-2.85,4.08l.65-.07a4.23,4.23,0,0,0,2.72-1.48,32.62,32.62,0,0,0,3.38-4.87,42.5,42.5,0,0,0,5.07-16.34A46,46,0,0,0,83.17,97a25.43,25.43,0,0,0-1.42-4.67C79.36,86.8,72.67,85.07,64.62,85h0a80.35,80.35,0,0,0-8.33.45c-1.29.12-2.6.27-3.9.43l-1.61.21C46.28,86.72,42.69,87.19,39.8,87.37Z"/><path class="cls-3" d="M25.9,72.82c.33,3.38.3,7.06,2.38,9.74a5.44,5.44,0,0,0,.59.67A19.73,19.73,0,0,1,28.05,78h0c-.09-1.4-.12-3-.11-4.65,0-5.22.41-11.41.94-16.52h0c.61-5.87,1.42-10.3,2-10.18s1.77.4,3.44.71c5,.92,13.9,2,18.79-1.67a16.35,16.35,0,0,1-9.16.53c-5.74-1.29-10.65-4.87-15.62-8-1.39-.88-3.18-1.75-4.59-.88a4.08,4.08,0,0,0-1.52,2.41C18.94,50.45,24.81,61.65,25.9,72.82Z"/><path class="cls-3" d="M21.76,118.44a3.73,3.73,0,0,1,.47-1.78c.82-.62,8,1.21,20.6,1.52,1.13,0,2.31,0,3.53,0,2.61,0,4.89,0,6.88-.14,5.13-.22,8.33-.64,10.47-.76,1.71-.11,2.74,0,3.55.45a1.37,1.37,0,0,1,.51.92c.37,1.65-.21,5-.94,8.17-.37,1.63-.79,3.2-1.12,4.41a2.22,2.22,0,0,0,2.06,2.81,21.77,21.77,0,0,0,2.42,0c-.48-5.57,3.22-10.94,3.32-16.52a5.05,5.05,0,0,0-.35-2.18c-1.19-2.62-4.94-2.3-7.76-1.69a93.36,93.36,0,0,1-43.15-.74A6.39,6.39,0,0,0,21.76,118.44Z"/><path class="cls-3" d="M5.24,76.37c0,4.77.16,9.31.35,13.59.23,5,.55,9.7,1,14,.17,1.88.34,3.68.53,5.39.53,4.74,1.11,8.84,1.67,12.21.28,1.65.56,3.13.82,4.42.74,3.66,1.39,5.83,1.75,6.31.52.7,2,1.09,3.74,1.22-3.72-15.57-4.57-31.78-5.38-47.82-1.17-23-2.14-47.06,7.59-67.92a2.3,2.3,0,0,0,.27-1.89,2.14,2.14,0,0,0-1-.86A18.43,18.43,0,0,1,11,11.21C9.54,9.5,8.89,6.87,10.15,5a2.42,2.42,0,0,1,3.57-.87,10.8,10.8,0,0,0-.63-1C11.08.07,4.84.29,5.73,7s6,8.25,7.14,9.59c.58.69-1.3,4.43-3.34,13.05A150.7,150.7,0,0,0,6.61,46.73C6.29,49.58,6,52.65,5.78,56c-.24,3.65-.41,7.59-.49,11.86Q5.22,72.22,5.24,76.37Z"/><path class="cls-8" d="M28.92,3.15a2.34,2.34,0,0,0,1.56,2.27s-.23,3.34-.45,6a6.65,6.65,0,0,1-.29,2,5.63,5.63,0,0,0,3.29,0c-.47-.18-.73-.38-.77-.64A77.69,77.69,0,0,1,32.48,5s3.06-.34,0-3.32A2.07,2.07,0,0,0,28.92,3.15Z"/><path class="cls-15" d="M31.13,11.87c.46,2.19,2.32,3.84,4.32,4.84s4.23,1.48,6.31,2.3c4.19,1.66,13,6.88,15.82,17.08a4.8,4.8,0,0,0,.3.84c.6-5.4-1.93-11.54-8.23-16.12l-.48-.34c-7.85-5.54-14-6.14-16.14-7-.46-.18-.73-.37-.77-.64A76.92,76.92,0,0,1,32.49,5s3-.34,0-3.32a2.07,2.07,0,0,0-1.09-.57C32.55,4.88,30.35,8.19,31.13,11.87Z"/><path class="cls-8" d="M19.78,4.16v7.28a4.6,4.6,0,0,1-.17,1.44c1.37.75,3.05.46,4.63.09-1.2-.25-1.81-.64-2.23-2.2a26.94,26.94,0,0,1-.45-6.61,1.6,1.6,0,0,0,1.12-2.34c-.9-1.82-3.57-1.75-4,0A1.92,1.92,0,0,0,19.78,4.16Z"/><path class="cls-7" d="M68.39,88.94a1.77,1.77,0,0,0,2.13,1.35c.06,0,7.86-1.49,19.5,6.16,9.2,6.06,18.35,11.11,18.44,11.15a1.77,1.77,0,0,0,2.41-.7,1.77,1.77,0,0,0-.69-2.42s-1.73-1-4.37-2.49c-3.49-2-8.65-5.11-13.83-8.51a48.61,48.61,0,0,0-7.42-4C75.71,85.59,70,86.75,69.75,86.82A1.77,1.77,0,0,0,68.39,88.94Z"/><path class="cls-3" d="M68.39,88.94a1.77,1.77,0,0,0,2.13,1.35c.06,0,7.86-1.49,19.5,6.16,9.2,6.06,18.35,11.11,18.44,11.15a1.77,1.77,0,0,0,2.41-.7,1.77,1.77,0,0,0-.69-2.42s-1.73-1-4.37-2.49c-2.46,1.74-4-.27-6.77-2L86.82,92.28a5.19,5.19,0,0,1-1.65-1.39,4.92,4.92,0,0,1-.61-1.46C75.71,85.59,70,86.75,69.75,86.82A1.77,1.77,0,0,0,68.39,88.94Z"/><path class="cls-16" d="M110.69,110.52c4.86-1.48,6.8,2.43,6.8,2.43s-.07-.3-.21-.81c-.62-2.18-2.56-8.07-5.86-9.53-1.46-.67-3.19-.46-5.17,1.32C102.14,107.59,105.84,112,110.69,110.52Z"/><path class="cls-3" d="M110.69,110.52c4.86-1.48,6.8,2.43,6.8,2.43s-.07-.3-.21-.81-.53-1-.81-1.53a4.76,4.76,0,0,0-2.51-2.47c-1.2-.34-2.52.18-3.68-.25-3.5-1.34-1.06-4,1.14-5.28-1.46-.67-3.19-.46-5.17,1.32C102.14,107.59,105.84,112,110.69,110.52Z"/></svg>