<svg id="Layer_1" data-name="Layer 1" xmlns="http://www.w3.org/2000/svg" viewBox="0 0 118.16 74.36"><defs><style>.cls-1{fill:#f177aa;}.cls-2{fill:#8b314b;opacity:0.63;}.cls-3,.cls-6,.cls-9{fill:#8f2048;}.cls-3{opacity:0.3;}.cls-4,.cls-7,.cls-8{fill:none;stroke-linecap:round;stroke-linejoin:round;}.cls-4{stroke:#f177aa;}.cls-4,.cls-8{stroke-width:0.97px;}.cls-5{fill:#f49dc2;}.cls-6{opacity:0.16;}.cls-7,.cls-8{stroke:#8f2048;}.cls-7{stroke-width:1.56px;}.cls-9{opacity:0.23;}</style></defs><title>pig</title><path class="cls-1" d="M45.31,70.42c-.36,2.28-1,3.94-1.38,3.94-.72,0-2.7-2.12-3.35-2.27s-2.6,1.78-3.75,1.29c-.54-.22-.26-2,.05-3.87.35-2.11.72-4.31-.05-4.37l8.78.41A25.29,25.29,0,0,1,45.31,70.42Z"/><path class="cls-1" d="M94,65c-.34,2.28-.92,3.94-1.35,3.94-.72,0-2.71-2.08-3.36-2.23s-2.58,1.8-3.75,1.33c-.53-.22-.27-2,0-3.87.33-2.12.68-4.32-.1-4.37l9.33-4.19A93.25,93.25,0,0,1,94,65Z"/><path class="cls-1" d="M78.59,66.3c-.34,2.28-.92,3.94-1.35,3.94-.72,0-2.72-2.09-3.36-2.23s-2.59,1.8-3.75,1.33c-.54-.22-.27-2,0-3.87.33-2.12.68-4.32-.1-4.37l9.33-4.2A90.42,90.42,0,0,1,78.59,66.3Z"/><path class="cls-1" d="M25.65,65.81c-.34,2.28-.92,4-1.35,4-.72,0-2.71-2.09-3.36-2.24s-2.58,1.81-3.75,1.33c-.53-.22-.27-2,0-3.86.33-2.12.44-8-.34-8.09l9.57-.48A92.75,92.75,0,0,1,25.65,65.81Z"/><path class="cls-2" d="M45.31,70.42c-.36,2.28-1,3.94-1.38,3.94-.72,0-2.7-2.12-3.35-2.27s-2.6,1.78-3.75,1.29c-.54-.22-.26-2,.05-3.87A50.12,50.12,0,0,0,45.31,70.42Z"/><path class="cls-2" d="M94,65c-.34,2.28-.92,3.94-1.35,3.94-.72,0-2.71-2.08-3.36-2.23s-2.58,1.8-3.75,1.33c-.53-.22-.27-2,0-3.87A49.9,49.9,0,0,0,94,65Z"/><path class="cls-2" d="M78.59,66.3c-.34,2.28-.92,3.94-1.35,3.94-.72,0-2.72-2.09-3.36-2.23s-2.59,1.8-3.75,1.33c-.54-.22-.27-2,0-3.87A50.14,50.14,0,0,0,78.59,66.3Z"/><path class="cls-2" d="M25.65,65.81c-.34,2.28-.92,4-1.35,4-.72,0-2.71-2.09-3.36-2.24s-2.58,1.81-3.75,1.33c-.53-.22-.27-2,0-3.86A50,50,0,0,0,25.65,65.81Z"/><path class="cls-1" d="M10.39,32.79C6.81,32,2.75,38,1.13,38.8.43,39.14,0,37.58,0,35.34c.07-3,1.12-7.18,3.89-9.68a6.68,6.68,0,0,1,4.34-1.95,6.27,6.27,0,0,1,4.43,1.95C17.21,29.71,14,33.61,10.39,32.79Z"/><path class="cls-3" d="M10.39,32.79C6.81,32,2.75,38,1.13,38.8.43,39.14,0,37.58,0,35.34a14.18,14.18,0,0,1,1.77-1.69c2.22-1.84,4.72-3.48,6.17-6a4,4,0,0,0,.54-3.62,1,1,0,0,0-.25-.34,6.27,6.27,0,0,1,4.43,1.95C17.21,29.71,14,33.61,10.39,32.79Z"/><path class="cls-4" d="M103.08,36s1.63,3.57,6.5.81,2.76-7.53-.33-6.44.65,7.91,4.55,6.12,4.71-7.63,3.08-8.12"/><path class="cls-5" d="M101.62,49.08c-6.77,9.67-21.67,14-36.9,15.66a164.37,164.37,0,0,1-23.49.69c-13.81-.55-24.71-4-29.79-12.07A19.2,19.2,0,0,1,9.12,48a26.69,26.69,0,0,1-.74-8.88c0-.27,0-.55.06-.82a41.41,41.41,0,0,1,.9-5.58A40.42,40.42,0,0,1,11.94,25a35.22,35.22,0,0,1,1.94-3.68C18.2,14,25.49,7.32,37.16,3.45A76.14,76.14,0,0,1,61.53,0C101.62.17,112,34.26,101.62,49.08Z"/><path class="cls-6" d="M101.62,49.08c-6.77,9.67-21.67,14-36.9,15.66,9.49-4.84,17-13.75,19.13-24.17,2.27-11.18-2.34-23.76-12-29.88a40.94,40.94,0,0,0-12.74-4.9,84,84,0,0,0-22-2.34A76.14,76.14,0,0,1,61.53,0C101.62.17,112,34.26,101.62,49.08Z"/><path class="cls-6" d="M84.56,20.62c.78,2.21,2.38,4,3.59,6a15.63,15.63,0,0,0,2.73,3.95c1.22,1.06,3.19,1.49,4.4.43a4,4,0,0,0,1.06-1.81c1.57-4.58.16-11.54-4.12-14.38S82.71,15.37,84.56,20.62Z"/><path class="cls-1" d="M38.63,51.24c0,3.62-4.39,6.56-9.82,6.56S19,54.86,19,51.24s4.4-6.56,9.82-6.56S38.63,47.62,38.63,51.24Z"/><path class="cls-7" d="M9.57,43.19s1.63-3.9,5.52-2.93a5.35,5.35,0,0,1,4.22,4.42"/><path class="cls-7" d="M41.23,45.13S43,40.91,47.4,41.56a6,6,0,0,1,5.2,4.06"/><line class="cls-8" x1="24.67" y1="50.55" x2="24.67" y2="52.51"/><line class="cls-8" x1="31.82" y1="50.55" x2="31.82" y2="52.51"/><path class="cls-1" d="M15.9,50.54c0,1.51-2,2.75-4.46,2.82A19.2,19.2,0,0,1,9.12,48a7.57,7.57,0,0,1,2.08-.29C13.8,47.73,15.9,49,15.9,50.54Z"/><path class="cls-1" d="M54.38,51.83C54.38,53.56,52,55,49.15,55s-5.23-1.4-5.23-3.13,2.35-3.12,5.23-3.12S54.38,50.11,54.38,51.83Z"/><path class="cls-1" d="M70.27,40.7a5.3,5.3,0,0,1-.8.38c-2.75,1-4.21-9.44-8.28-9.75s-5.35,2.49-7.13,1.25c-1.12-.78-1.4-3.34,2.78-7.07a26.39,26.39,0,0,1,2.25-1.8C65.58,19,72.88,23.06,74,29.39,75.06,35.11,72.77,39.24,70.27,40.7Z"/><path class="cls-9" d="M70.27,40.7c0-.51,0-1-.06-1.52a18.32,18.32,0,0,0-2.24-9A10.34,10.34,0,0,0,60.55,25a6.63,6.63,0,0,0-3.71.51,26.39,26.39,0,0,1,2.25-1.8C65.58,19,72.88,23.06,74,29.39,75.06,35.11,72.77,39.24,70.27,40.7Z"/></svg>