<svg id="summer" xmlns="http://www.w3.org/2000/svg" viewBox="0 0 50.7 51.61"><defs><style>.cls-1{fill:#eebf37;}</style></defs><title>summer</title><circle class="cls-1" cx="25.22" cy="25.37" r="8.15"/><path class="cls-1" d="M25.22,7.3c-2.62,3.68-6.32,2.8-6,0,1.38-3.23,2.88-7.3,6-7.3S30.8,7.3,30.8,7.3C31.47,10.22,27.09,11.11,25.22,7.3Z"/><path class="cls-1" d="M38.52,13.18c-4.46.75-6.46-2.49-4.24-4.23,3.26-1.31,7.2-3.13,9.4-.93s-1.22,9.1-1.22,9.1C40.87,19.66,37.14,17.2,38.52,13.18Z"/><path class="cls-1" d="M43.4,26.1c-3.68-2.61-2.8-6.32,0-6,3.23,1.38,7.3,2.87,7.3,6s-7.3,5.58-7.3,5.58C40.48,32.36,39.59,28,43.4,26.1Z"/><path class="cls-1" d="M38.29,38.84c-.75-4.46,2.48-6.46,4.23-4.24,1.31,3.26,3.13,7.2.93,9.4s-9.11-1.22-9.11-1.22C31.8,41.19,34.26,37.46,38.29,38.84Z"/><path class="cls-1" d="M25,44.31c2.62-3.68,6.32-2.8,6,0-1.37,3.23-2.87,7.3-6,7.3s-5.58-7.3-5.58-7.3C18.79,41.39,23.17,40.5,25,44.31Z"/><path class="cls-1" d="M12.09,12.08c.75,4.45-2.49,6.45-4.23,4.23-1.31-3.26-3.13-7.2-.93-9.39S16,8.13,16,8.13C18.57,9.72,16.11,13.45,12.09,12.08Z"/><path class="cls-1" d="M7.3,25.2c3.68,2.61,2.8,6.32,0,6C4.07,29.8,0,28.3,0,25.2s7.3-5.58,7.3-5.58C10.22,18.94,11.11,23.32,7.3,25.2Z"/><path class="cls-1" d="M12.42,38.61c4.46-.75,6.46,2.48,4.24,4.23-3.26,1.31-7.2,3.13-9.4.93s1.22-9.11,1.22-9.11C10.07,32.12,13.8,34.58,12.42,38.61Z"/></svg>