<svg id="winter" xmlns="http://www.w3.org/2000/svg" viewBox="0 0 45.32 44.47"><defs><style>.cls-1{fill:#629bd3;}</style></defs><title>winter</title><polygon class="cls-1" points="26.73 15.81 18.44 15.81 14.3 22.99 18.44 30.17 26.73 30.17 30.87 22.99 26.73 15.81"/><path class="cls-1" d="M18.89,15.81V9.88c-10-7.22-2.25-13.76,3.74-6.4,5.94-6.94,13.6-1,3.75,6.17v6.16Z"/><path class="cls-1" d="M26.85,16.16l5.06-2.93c1.2-12.12,10.62-8.71,7.3,0,8.85,1.63,7.57,11.1-3.41,6.24l-5.26,3Z"/><path class="cls-1" d="M30.64,23l5.1,2.87c11-5.12,12.9,4.74,3.68,6.31,3.08,8.45-5.73,12.16-7.11.23l-5.29-3Z"/><path class="cls-1" d="M26.6,29.82v5.59c10.15,6.76,2.31,13-3.76,6-6,6.55-13.72,1-3.79-5.8l0-5.8Z"/><path class="cls-1" d="M18.25,29.4l-5.08,2.89c-1.28,12.12-10.68,8.64-7.3-.08C-3,30.52-1.63,21.06,9.32,26l5.28-3Z"/><path class="cls-1" d="M14.63,22.49,9.57,19.57C-1.54,24.57-3.28,14.7,6,13.22c-3-8.48,5.85-12.1,7.11-.15l5.26,3Z"/></svg>